<svg width="200" height="80" viewBox="0 0 200 80" fill="none" xmlns="http://www.w3.org/2000/svg"><path d="M148.91 15.2665C139.21 15.2665 131.346 20.6532 131.346 31.6349C131.346 42.6166 139.21 47.399 148.91 47.399C158.61 47.399 166.474 42.4864 166.474 31.6349C166.474 20.7834 158.61 15.2665 148.91 15.2665ZM154.971 35.7504L146.308 38.4386C145.586 38.6626 144.82 38.2589 144.599 37.5373L141.911 28.8738C141.687 28.1523 142.091 27.3865 142.812 27.1651L151.476 24.477C152.197 24.253 152.963 24.6567 153.184 25.3782L155.872 34.0417C156.096 34.7632 155.693 35.529 154.971 35.7504V35.7504Z" fill="#1765AE"/><path d="M24.7037 32.3877C24.3755 32.2888 24.3677 31.8277 24.6933 31.7209C26.8969 30.9864 31.1089 28.9911 31.1089 24.4901C31.1089 16.9232 22.9116 15.8708 22.9116 15.8708H0V47.4017H23.542C23.542 47.4017 31.1089 47.4017 31.1089 40.2542C31.1089 34.9847 26.91 33.0441 24.7037 32.3877ZM18.3194 40.5693L13.9069 42.4734C13.214 42.773 12.4092 42.4526 12.1122 41.7597L10.2081 37.3472C9.90857 36.6544 10.229 35.8495 10.9218 35.5525L15.3343 33.6485C16.0272 33.3489 16.8321 33.6693 17.129 34.3622L19.0331 38.7747C19.3327 39.4675 19.0123 40.2724 18.3194 40.5693V40.5693ZM18.3194 27.1495L13.9069 29.0536C13.214 29.3532 12.4092 29.0328 12.1122 28.3399L10.2081 23.9274C9.90857 23.2346 10.229 22.4297 10.9218 22.1327L15.3343 20.2286C16.0272 19.9291 16.8321 20.2495 17.129 20.9424L19.0331 25.3548C19.3327 26.0477 19.0123 26.8526 18.3194 27.1495V27.1495Z" fill="#1765AE"/><path d="M55.4375 15.8708V35.5499C55.4375 37.8578 53.5672 39.728 51.2594 39.728C48.9516 39.728 47.0813 37.8578 47.0813 35.5499V15.8708H35.4146V33.5938C35.4146 41.2205 41.5957 47.4017 49.2225 47.4017H53.2937C60.9205 47.4017 67.1017 41.2205 67.1017 33.5938V15.8708H55.4349H55.4375Z" fill="#1765AE"/><path d="M96.3481 16.397L95.8741 23.3335C95.8741 23.3335 82.9466 21.2835 82.3943 24.2009C81.8421 27.1182 85.2309 26.9593 88.7005 27.5116C92.1675 28.0638 98.5544 30.4289 98.5544 36.8132C98.5544 43.1975 93.983 47.4016 87.6768 47.4016C81.3707 47.4016 70.5713 46.1149 70.5713 46.1149L70.9646 39.2565C70.9646 39.2565 86.1765 41.8587 86.8068 38.0739C87.4372 34.2892 82.944 36.024 77.5833 34.3699C72.2227 32.7159 70.4879 28.7723 70.5687 24.9901C70.6468 21.2054 73.7309 15.5921 84.5589 15.0581C92.5608 14.6648 96.3455 16.397 96.3455 16.397H96.3481Z" fill="#1765AE"/><path d="M114.003 15.8708H102.576V46.9016H129.455V37.9151H114.24L114.003 15.8708Z" fill="#1765AE"/><path d="M190.357 31.3172V40.2203C190.125 40.2385 189.287 40.2568 189.05 40.2568C184.16 40.2568 180.196 36.2923 180.196 31.4031C180.196 26.514 184.173 22.935 189.05 22.5495C192.115 22.3072 198.737 24.5942 198.737 24.5942C198.737 21.3617 198.729 16.608 198.729 16.608C196.306 15.6156 192.688 15.0868 186.387 15.2665C176.69 15.54 168.823 20.6532 168.823 31.6349C168.823 42.6167 176.687 47.3991 186.387 47.3991C191.878 47.3991 196.778 47.3391 200 44.005V31.3172H190.357V31.3172Z" fill="#1765AE"/><path d="M44.599 64.7156C48.2775 64.7156 51.2594 61.7336 51.2594 58.0552C51.2594 54.3767 48.2775 51.3948 44.599 51.3948C40.9206 51.3948 37.9386 54.3767 37.9386 58.0552C37.9386 61.7336 40.9206 64.7156 44.599 64.7156Z" fill="#9BCB4F"/><path d="M57.9224 64.7156C61.6009 64.7156 64.5829 61.7336 64.5829 58.0552C64.5829 54.3767 61.6009 51.3948 57.9224 51.3948C54.244 51.3948 51.262 54.3767 51.262 58.0552C51.262 61.7336 54.244 64.7156 57.9224 64.7156Z" fill="#9BCB4F"/><path d="M167.013 64.7156C170.692 64.7156 173.673 61.7336 173.673 58.0552C173.673 54.3767 170.692 51.3948 167.013 51.3948C163.335 51.3948 160.353 54.3767 160.353 58.0552C160.353 61.7336 163.335 64.7156 167.013 64.7156Z" fill="#9BCB4F"/></svg>