<svg width="200" height="80" viewBox="0 0 200 80" fill="none" xmlns="http://www.w3.org/2000/svg"><g clip-path="url(#clip0_34_1805)"><path d="M12.9543 57.3249C12.6436 57.7098 12.4615 58.2017 12.4615 58.7332C12.4615 59.9824 13.4776 60.9999 14.7437 60.9999H31.2714L20.6821 47.3295L12.9543 57.3249V57.3249Z" fill="#B56B1C"/><path d="M24.1072 20L34.7013 33.6644L42.4346 23.684C42.7332 23.2889 42.9237 22.8023 42.9237 22.272C42.9237 21.0169 41.901 20 40.6404 20H24.1072V20Z" fill="#053D6B"/><path fill-rule="evenodd" clip-rule="evenodd" d="M24.1075 47.3294H42.8864C44.4361 47.3294 45.8187 46.5998 46.6966 45.4668L55.029 34.6772C55.2489 34.3983 55.3811 34.0493 55.3811 33.6692C55.3811 33.294 55.2531 32.9558 55.0482 32.6876L46.7062 21.898L46.6521 21.816C45.7881 20.7386 44.4662 20.0347 42.988 20.0048C42.961 20 42.9423 20 42.9237 20H41.9467H40.6404C40.6492 20 40.658 20.0001 40.6668 20.0002H40.6405C40.9557 20.0002 41.2559 20.0637 41.5291 20.1786C41.5462 20.1858 41.5631 20.1931 41.58 20.2007C42.3722 20.5571 42.9237 21.3504 42.9237 22.2721C42.9237 22.8024 42.7332 23.289 42.4346 23.684L34.7013 33.6644L24.1072 47.3294H24.1075L24.1074 47.3296L24.1075 47.3294Z" fill="#0D73A8"/><path fill-rule="evenodd" clip-rule="evenodd" d="M12.9291 57.3568C12.9374 57.3461 12.9458 57.3354 12.9543 57.3249L20.6822 47.3295L31.2714 33.6645H12.491C10.9378 33.6645 9.56356 34.3983 8.69229 35.5379L0.353319 46.3269C0.1346 46.6058 0 46.9494 0 47.3295C0 47.7041 0.119577 48.0429 0.338296 48.326L8.68208 59.1067L8.73735 59.1821C9.5948 60.2654 10.9113 60.9699 12.4003 60.9999H12.4574H13.4422H14.1235C14.1319 61 14.1403 61 14.1487 61H14.7436C14.7351 61 14.7266 61 14.7181 60.9999H14.7437C13.4777 60.9999 12.4616 59.9823 12.4616 58.7332C12.4616 58.5059 12.4949 58.2857 12.5574 58.0781C12.637 57.8137 12.7639 57.5697 12.9291 57.3568Z" fill="#F5CC0D"/><path d="M196.075 48.2659C195.295 47.9218 194.309 47.6884 193.233 47.4262C191.643 47.0312 190.169 46.9444 189.62 46.0939C189.109 45.3044 189.391 44.3785 190.072 43.9081C191.636 42.8409 193.76 43.2658 194.935 43.8081C195.132 43.8937 196.005 44.3941 196.005 44.3941C196.123 44.4689 196.268 44.5156 196.424 44.5156C196.704 44.5156 196.936 44.3839 197.084 44.1816C197.095 44.1564 199.31 41.2913 199.31 41.2913L198.937 40.9974C198.722 40.8406 198.416 40.6233 198.09 40.436C197.424 40.0619 195.402 38.902 192.464 38.902H192.206C185.763 39.0546 184.874 43.5884 184.874 45.1883C184.874 47.6189 186.128 49.3642 188.019 50.447C189.527 51.3178 192.389 51.7871 193.848 52.2282C194.605 52.455 195.162 52.9782 195.372 53.4887C195.469 53.7108 195.521 53.9496 195.528 54.2021C195.555 55.0323 195.103 55.9989 193.852 56.3892C192.464 56.8081 190.276 56.6328 188.294 55.0826C188.237 55.0371 188.014 54.8647 187.939 54.836C187.842 54.7989 187.749 54.7851 187.636 54.7851C187.353 54.7851 187.132 54.9324 186.974 55.1484C186.942 55.1891 184.768 57.9741 184.768 57.9741C184.768 57.9741 185.535 58.6049 185.788 58.7976C187.038 59.7343 189.279 60.9996 192.223 60.9996H192.335C198.526 60.9787 200 56.6016 200 54.1872C200 51.7332 198.492 49.3487 196.075 48.2659Z" fill="#00416B"/><path d="M126.884 39.2475C125.822 39.2625 124.934 39.3942 124.039 39.6569C122.613 40.1016 121.523 40.8815 120.692 41.969C119.321 43.7814 119.335 45.9319 119.335 45.9319V60.9543H123.368C123.623 60.9543 123.837 60.7419 123.837 60.4875V46.206C123.837 45.9181 123.88 44.9407 124.438 44.429C124.882 44.0298 125.482 43.837 126.069 43.7508C126.722 43.6551 127.329 43.7006 127.632 43.7413C127.632 43.7413 127.693 43.7508 127.734 43.7508C128.027 43.7508 128.281 43.588 128.424 43.3558L130.487 39.8185C129.338 39.4193 128.191 39.2314 126.884 39.2475Z" fill="#00416B"/><path d="M114.962 39.2475C113.898 39.2625 112.999 39.3942 112.12 39.6569C110.682 40.1016 109.601 40.8815 108.765 41.969C107.389 43.7814 107.414 45.9319 107.414 45.9319V60.9543H111.444C111.694 60.9543 111.908 60.7419 111.908 60.4875V46.206C111.908 45.9181 111.945 44.9407 112.512 44.429C112.954 44.0298 113.558 43.837 114.147 43.7508C114.802 43.6551 115.396 43.7006 115.701 43.7413C115.701 43.7413 115.773 43.7508 115.803 43.7508C116.099 43.7508 116.357 43.588 116.5 43.3558L118.562 39.8185C117.409 39.4193 116.261 39.2314 114.962 39.2475Z" fill="#00416B"/><path d="M79.4691 55.3914C79.3165 55.1945 79.0786 55.0682 78.8028 55.0682C78.6453 55.0682 78.4987 55.1083 78.3821 55.1837L78.3611 55.1891C76.9905 56.0139 75.379 56.4801 73.6562 56.4801C68.6005 56.4801 64.4857 52.3802 64.4857 47.34C64.4857 42.304 68.6005 38.1993 73.6562 38.1993C75.379 38.1993 76.9845 38.6757 78.3563 39.4843C78.4843 39.5759 78.6417 39.616 78.8028 39.616C79.0677 39.616 79.3117 39.4843 79.4643 39.303L81.7543 36.3319C79.4842 34.6668 76.6877 33.6894 73.6562 33.6894C66.102 33.6894 59.9532 39.8141 59.9532 47.34C59.9532 54.8707 66.102 60.9996 73.6562 60.9996C76.6877 60.9996 79.4842 60.0174 81.7657 58.3577L79.4691 55.3914Z" fill="#00416B"/><path d="M140.918 43.2497C143.896 43.2497 146.412 45.1739 147.305 47.8416H134.542C135.43 45.1739 137.957 43.2497 140.918 43.2497ZM140.918 38.9337C134.824 38.9337 129.857 43.8721 129.857 49.9508C129.857 55.969 134.826 60.9069 140.929 60.9745H141.254C143.668 60.9745 145.589 60.6501 148.141 58.9999L148.555 58.733C148.555 58.733 146.286 55.8062 146.264 55.7703C146.113 55.574 145.879 55.4578 145.615 55.4578C145.463 55.4578 145.324 55.4932 145.208 55.5626C144.636 55.8625 142.858 56.6567 140.918 56.6567C138.002 56.6627 135.516 54.7941 134.582 52.2042H149.728L151.477 52.1929C151.739 52.1929 151.952 51.9864 151.952 51.7332L151.977 50.4416C151.983 50.2794 151.995 50.1142 151.995 49.9508C151.995 43.8721 147.027 38.9337 140.918 38.9337Z" fill="#00416B"/><path d="M155.039 60.9999C154.782 60.9999 154.571 60.7976 154.568 60.5486V40.107C154.571 39.864 154.77 39.657 155.018 39.6474H158.595C158.854 39.6474 159.068 39.8533 159.068 40.113V60.5384C159.068 60.7922 158.854 60.9999 158.595 60.9999H155.039Z" fill="#00416B"/><path d="M93.6919 43.1895C90.014 43.1895 87.0156 46.1755 87.0156 49.8385C87.0156 53.5135 90.014 56.4912 93.6919 56.4912C97.3807 56.4912 100.375 53.5135 100.375 49.8385C100.375 46.1755 97.3807 43.1895 93.6919 43.1895ZM93.6919 60.9999C87.5167 60.9999 82.4922 55.9938 82.4922 49.8385C82.4922 43.6898 87.5167 38.6897 93.6919 38.6897C99.872 38.6897 104.893 43.6898 104.893 49.8385C104.893 55.9938 99.872 60.9999 93.6919 60.9999Z" fill="#00416B"/><path d="M172.389 43.3525C168.742 43.3525 165.779 46.3021 165.779 49.9309C165.779 53.5592 168.742 56.5154 172.389 56.5154C176.033 56.5154 178.996 53.5592 178.996 49.9309C178.996 46.3021 176.033 43.3525 172.389 43.3525ZM172.389 60.9696C166.278 60.9696 161.31 56.0138 161.31 49.9309C161.31 43.8415 166.278 38.8929 172.389 38.8929C178.5 38.8929 183.474 43.8415 183.474 49.9309C183.474 56.0138 178.5 60.9696 172.389 60.9696Z" fill="#00416B"/></g><defs><clipPath id="clip0_34_1805"><rect width="200" height="80" fill="white"/></clipPath></defs></svg>