<svg width="200" height="80" viewBox="0 0 200 80" fill="none" xmlns="http://www.w3.org/2000/svg"><path fill-rule="evenodd" clip-rule="evenodd" d="M129.696 20.9441C129.675 20.9652 129.657 23.4085 129.657 26.3737C129.657 29.3388 129.638 31.7648 129.613 31.7648C129.588 31.7648 129.427 31.7157 129.256 31.6557C128.138 31.2654 127.029 31.1185 125.171 31.1147C123.589 31.1115 122.987 31.1764 121.714 31.4877C118.729 32.2179 116.387 33.7834 114.827 36.0913C114.173 37.0586 113.517 38.5608 113.17 39.8873C112.349 43.0265 112.691 46.7876 114.043 49.4703C115.863 53.0853 119.587 55.2962 124.543 55.7034C126.233 55.8423 129.806 55.7135 131.915 55.4377C133.595 55.218 135.829 54.7929 135.986 54.6631C136.043 54.6161 136.054 51.1938 136.043 37.7696L136.029 20.935L132.881 20.9204C131.151 20.9123 129.717 20.923 129.696 20.9441ZM140.439 20.9441C140.417 20.9652 140.4 28.7393 140.4 38.22V55.4577L140.529 55.4919C140.7 55.5376 146.06 55.5367 146.443 55.4909L146.743 55.4551L146.729 38.195L146.714 20.935L143.596 20.9204C141.881 20.9123 140.46 20.923 140.439 20.9441ZM81.3345 22.5005C78.7715 22.955 77.7845 26.06 79.6265 27.8747C80.1005 28.3418 80.549 28.5873 81.1835 28.7278C82.606 29.0427 84.0885 28.3286 84.708 27.0302C85.697 24.9571 84.332 22.6266 82.04 22.4754C81.814 22.4605 81.4965 22.4718 81.3345 22.5005ZM187.771 31.0844C183.718 31.4579 180.338 33.2879 178.482 36.1138C176.698 38.83 176.147 42.7153 177.005 46.5335C177.703 49.6424 179.21 51.9351 181.604 53.5295C183.344 54.6883 185.291 55.3561 187.592 55.583C188.252 55.6482 190.022 55.6612 190.563 55.605L190.914 55.5684V52.8241C190.914 50.6805 190.898 50.0739 190.843 50.0534C190.803 50.0389 190.656 50.0393 190.515 50.0543C190.073 50.1012 188.687 49.9667 188.074 49.8174C186.844 49.5177 185.896 49.0289 185.1 48.283C184.544 47.7618 184.225 47.3355 183.889 46.6678C183.355 45.6056 183.086 44.4595 183.086 43.2457C183.086 40.3707 184.536 38.0782 186.92 37.1857C187.876 36.8277 188.44 36.7436 189.886 36.7437C191.511 36.7439 192.384 36.8769 193.244 37.2552L193.546 37.3879L193.529 46.5573L193.513 55.7267L193.382 56.1815C192.938 57.7195 191.982 58.7205 190.485 59.2175C189.623 59.503 189.097 59.5675 187.6 59.568C185.446 59.569 183.524 59.357 181.609 58.907C181.284 58.8305 180.97 58.768 180.91 58.768C180.804 58.768 180.8 58.8475 180.8 61.4615C180.8 63.547 180.816 64.168 180.872 64.2135C180.953 64.28 181.871 64.451 183.057 64.621C185.808 65.014 189.104 65.097 191.017 64.821C192.358 64.6275 193.815 64.176 194.8 63.6495C196.307 62.843 197.616 61.5585 198.439 60.0755C198.887 59.27 199.324 58.0735 199.566 56.9937C199.998 55.0629 200 55.0028 200 43.2187V32.9253L198.871 32.5471C196.646 31.8017 195.001 31.4302 192.743 31.1633C191.844 31.0571 188.623 31.006 187.771 31.0844ZM96.4005 31.2022C94.7845 31.3166 93.2145 31.5762 91.8135 31.9602C91.0525 32.1689 89.6085 32.6821 89.386 32.8229L89.2575 32.9044V35.6664C89.2575 37.8531 89.2725 38.4225 89.329 38.4001C89.3685 38.3846 89.722 38.2442 90.115 38.0882C91.5735 37.509 93.161 37.0538 94.5145 36.8262C95.6845 36.6296 96.402 36.575 97.8575 36.5718C99.4145 36.5685 99.869 36.6261 100.629 36.9236C101.664 37.3287 102.482 38.138 102.956 39.2256C103.132 39.6313 103.429 40.6422 103.429 40.8395C103.429 40.9046 102.908 40.9177 100.272 40.9186C96.0595 40.9201 95.0095 40.9834 93.7145 41.3139C92.0715 41.7333 90.8715 42.3676 89.908 43.3266C88.6375 44.5903 87.9335 46.3402 87.9255 48.251C87.9205 49.5401 88.21 50.7755 88.7515 51.7757C89.7925 53.6977 91.992 55.1748 94.7195 55.7835C95.8745 56.0411 96.5035 56.1038 98.2575 56.1361C102.175 56.2082 105.532 55.8319 108.886 54.9447L109.801 54.7028L109.817 48.6203C109.828 44.6487 109.813 42.2714 109.773 41.7703C109.556 39.0583 108.906 36.9328 107.783 35.2611C107.348 34.6127 106.299 33.527 105.715 33.1206C103.475 31.5618 100.366 30.9214 96.4005 31.2022ZM161.086 31.1975C158.297 31.3783 155.563 32.4502 153.652 34.1117C151.578 35.9161 150.179 38.6092 149.734 41.6533C149.593 42.6174 149.607 44.29 149.764 45.3233C150.12 47.658 150.953 49.7068 152.206 51.3286C154.523 54.3271 158.972 56.1322 163.114 55.7545C166.42 55.4531 169.551 53.9725 171.429 51.8221C172.711 50.3549 173.724 48.2902 174.167 46.244C174.896 42.8774 174.214 39.1222 172.372 36.3456C170.79 33.9617 168.119 32.1791 165.135 31.515C163.913 31.2433 162.315 31.118 161.086 31.1975ZM78.6565 31.9496C78.642 31.9887 78.623 37.444 78.615 44.0726L78.5995 56.1247L78.471 56.5794C78.2615 57.3215 78.0335 57.722 77.5485 58.202C76.82 58.922 76.049 59.199 74.6005 59.2605C73.3775 59.312 71.5205 59.096 70.372 58.7685C70.1525 58.706 69.966 58.6545 69.958 58.6545C69.95 58.6545 69.9435 59.954 69.9435 61.543C69.9435 63.7655 69.96 64.453 70.015 64.5255C70.089 64.623 71.0345 64.7635 72.6575 64.917C73.633 65.0095 76.1375 65.009 76.972 64.9165C81.099 64.458 83.472 62.795 84.5105 59.6345C84.686 59.0995 84.861 58.27 84.9815 57.404C85.078 56.7077 85.1195 32.0722 85.0245 31.9582C84.9315 31.8467 78.6975 31.8383 78.6565 31.9496ZM162.624 36.713C164.937 36.9491 166.694 38.3531 167.481 40.5942C167.836 41.6042 167.911 42.1181 167.91 43.5041C167.909 44.5793 167.891 44.8364 167.782 45.3366C167.298 47.565 165.971 49.2497 164.193 49.8952C162.94 50.3502 161.509 50.4012 160.243 50.0361C158.478 49.5274 157.123 48.1621 156.516 46.2829C156.17 45.2134 156.091 44.691 156.088 43.4473C156.086 42.4583 156.103 42.2335 156.219 41.7201C156.453 40.6816 156.837 39.7413 157.315 39.0415C158.194 37.7541 159.713 36.8705 161.315 36.7161C162.016 36.6484 161.992 36.6485 162.624 36.713ZM127.801 36.8801C128.115 36.9471 128.655 37.0963 129.001 37.2116L129.629 37.4213L129.643 43.7151C129.657 49.6662 129.653 50.0119 129.558 50.0608C129.265 50.2118 127.077 50.3798 126.115 50.3251C122.427 50.1153 120.125 48.3387 119.435 45.1679C118.915 42.7787 119.41 40.2954 120.712 38.7656C121.625 37.6928 122.829 37.0748 124.549 36.7968C125.305 36.6746 127.046 36.7192 127.801 36.8801ZM103.472 48.3582C103.482 49.8743 103.467 50.6779 103.428 50.7246C103.238 50.952 99.035 51.0448 97.7855 50.849C96 50.5694 94.822 49.9545 94.3695 49.0658C94.2125 48.7583 94.2005 48.689 94.2005 48.109C94.2005 47.3811 94.277 47.1804 94.704 46.7886C95.119 46.4084 95.6465 46.194 96.4115 46.0947C96.6095 46.069 98.276 46.0511 100.114 46.0551L103.457 46.0623L103.472 48.3582Z" fill="#404041"/><path d="M1.52708 21.071C1.66988 20.9289 27.1983 7.1317 27.4482 7.06155C27.8367 6.9524 28.546 6.99344 28.8903 7.145C29.0311 7.20697 34.8807 10.3706 41.8893 14.1753C52.875 20.1391 54.618 21.1024 54.5305 21.1619C54.475 21.1999 50.379 23.5778 45.4292 26.4463C40.4792 29.3147 36.3493 31.7375 36.2515 31.8303C35.9743 32.0935 35.9372 32.3094 35.9773 33.4229C36.029 34.8573 36.0028 34.8167 37.397 35.6242C38.5433 36.2882 38.4619 36.2964 40.0843 35.3535C45.6519 32.1178 55.908 26.1817 55.9755 26.1561C56.048 26.1282 56.057 27.9388 56.044 40.6697L56.029 55.2151L55.8675 55.543C55.5185 56.2499 55.801 56.0677 47.6293 60.8615C43.4807 63.295 37.5726 66.762 34.5002 68.566C30.0369 71.1865 28.8424 71.8645 28.5575 71.937C28.1522 72.04 27.6209 72.0145 27.2867 71.8755C27.172 71.828 21.1993 68.341 14.014 64.1275C4.09524 58.3105 0.882855 56.4006 0.672055 56.1952C0.50794 56.0353 0.319713 55.7679 0.211885 55.5415L0.0294284 55.1582L0.0146856 40.6141L0 26.07L0.186113 26.1826C0.342113 26.2769 5.10135 29.0345 11.6294 32.8132C22.4132 39.0553 25.3675 40.7822 25.4351 40.8832C25.5026 40.9842 25.5194 42.7113 25.5436 52.0359L25.5722 63.069L25.7224 63.2635C25.8224 63.393 26.1762 63.6285 26.7796 63.9665C27.6351 64.446 27.7059 64.475 28.0299 64.478C28.3566 64.4815 28.4156 64.458 29.2486 63.9985C29.7301 63.7325 30.1898 63.451 30.2703 63.373C30.5911 63.0615 30.5721 63.8635 30.5721 50.6017C30.5721 38.3428 30.5721 38.3382 30.4546 38.0969C30.3104 37.8005 30.5624 37.9592 26.515 35.6163C24.0075 34.1647 11.3814 26.8536 2.06839 21.4605C1.7441 21.2727 1.50051 21.0974 1.52708 21.071Z" fill="url(#paint0_linear_34_1737)"/><defs><linearGradient id="paint0_linear_34_1737" x1="32.5" y1="32.5" x2="3.05498e-06" y2="55" gradientUnits="userSpaceOnUse"><stop stop-color="#DB0031"/><stop offset="1" stop-color="#B20034"/></linearGradient></defs></svg>