<svg width="484" height="414" viewBox="0 0 484 414" fill="none" xmlns="http://www.w3.org/2000/svg">
<path d="M58.8414 413.017H261.825H385.343C398.597 413.017 411.523 408.879 422.327 401.176L435.925 391.481C464.085 371.405 464.931 329.747 437.608 308.537C410.962 287.852 410.977 247.487 437.638 226.822L447.172 219.432C474.941 197.908 478.831 157.333 455.661 130.894L412.26 81.3697C382.169 47.033 329.09 46.3194 298.093 79.8349C270.273 109.915 223.858 112.897 192.442 86.6223L182.316 78.1543C157.713 57.5782 123.877 52.1192 94.085 63.9195C50.5647 81.1574 28.2374 129.673 43.3846 174.089L62.8268 231.097C72.2163 258.63 59.2967 288.822 32.9343 300.955C12.8652 310.192 0 330.313 0 352.466V353.982C0 386.586 26.3442 413.017 58.8414 413.017Z" fill="#E7E8FF"/>
<path d="M107.819 234.882L104.978 249.841L107.819 265.512C115.156 266.462 130.115 268.361 131.251 268.361C132.387 268.361 140.719 261.238 144.743 257.676L140.482 234.882C152.411 230.893 156.34 213.274 156.814 204.964C159.654 170.772 136.932 166.498 132.671 166.498C128.411 166.498 101.428 166.498 97.8776 194.991C95.0373 217.786 103.322 231.083 107.819 234.882Z" fill="white"/>
<path fill-rule="evenodd" clip-rule="evenodd" d="M115.58 171.308C108.236 174.696 100.947 181.442 99.237 195.162C96.443 217.585 104.623 230.386 108.701 233.83L109.315 234.349L106.372 249.847L108.987 264.277C112.62 264.746 117.648 265.387 122.028 265.929C124.426 266.225 126.627 266.492 128.298 266.684C129.134 266.78 129.833 266.857 130.356 266.91C130.618 266.937 130.831 266.957 130.992 266.97C131.028 266.973 131.061 266.975 131.09 266.977C131.143 266.951 131.212 266.913 131.301 266.861C131.591 266.692 131.985 266.428 132.473 266.076C133.443 265.377 134.692 264.395 136.049 263.288C138.507 261.283 141.265 258.908 143.252 257.161L138.915 233.957L140.049 233.578C145.465 231.767 149.213 226.801 151.684 221.003C154.142 215.236 155.216 208.916 155.446 204.885L155.447 204.868L155.448 204.85C156.84 188.091 151.966 178.926 146.484 173.926C140.926 168.857 134.532 167.872 132.671 167.872C130.569 167.872 123.015 167.879 115.58 171.308ZM130.978 267.027C130.978 267.027 130.985 267.024 130.997 267.021C130.985 267.026 130.978 267.028 130.978 267.027ZM132.659 165.123H132.671C135.071 165.123 142.168 166.275 148.327 171.892C154.558 177.575 159.624 187.638 158.181 205.06C157.935 209.341 156.807 215.975 154.204 222.084C151.762 227.812 147.914 233.32 142.041 235.764L146.233 258.19L145.649 258.707C143.629 260.495 140.525 263.179 137.778 265.421C136.407 266.54 135.109 267.562 134.072 268.309C133.556 268.681 133.082 269.002 132.683 269.235C132.485 269.351 132.28 269.461 132.081 269.546C131.923 269.613 131.611 269.736 131.251 269.736C130.866 269.736 129.606 269.602 127.986 269.415C126.303 269.222 124.093 268.954 121.693 268.657C116.89 268.063 111.313 267.35 107.643 266.875L106.65 266.747L103.585 249.835L106.328 235.386C101.364 230.657 93.7472 217.057 96.5179 194.821C98.3588 180.047 106.336 172.547 114.436 168.811C122.43 165.123 130.483 165.123 132.659 165.123Z" fill="#00519D"/>
<path d="M38.9404 411.54H150.422L291.727 410.828C300.471 405.108 302.918 395.878 302.942 388.05C302.961 381.636 298.352 376.476 292.593 373.69C269.711 362.624 234.981 345.499 228.531 341.019C219.3 334.608 210.779 299.704 193.737 272.636C180.103 250.981 154.446 246.042 144.032 246.279C143.085 250.553 139.061 259.101 124.86 259.101C110.658 259.101 104.741 250.553 102.847 246.279C95.5098 246.279 75.1543 250.268 58.1125 266.225C36.825 286.156 27.592 331.696 19.0761 373.699L19.0583 373.787C12.2416 407.409 29.4727 412.49 38.9404 411.54Z" fill="white"/>
<path fill-rule="evenodd" clip-rule="evenodd" d="M145.092 247.647C144.428 249.897 143.049 252.812 140.343 255.305C137.157 258.24 132.255 260.476 124.86 260.476C110.816 260.476 104.391 252.453 101.989 247.671C94.2919 247.966 75.1651 252.138 59.0473 267.229C48.6743 276.942 41.13 293.02 35.1112 312.099C29.1036 331.144 24.6801 352.954 20.4187 373.973L20.4009 374.06C17.0313 390.68 19.6902 399.836 23.9268 404.726C28.1725 409.626 34.3316 410.621 38.8041 410.172L38.8721 410.166H150.422L291.311 409.455C299.251 404.07 301.549 395.519 301.572 388.045C301.589 382.353 297.483 377.581 291.998 374.928C280.554 369.393 266.143 362.342 253.785 356.113C241.482 349.912 231.076 344.459 227.751 342.149C225.133 340.331 222.739 336.657 220.379 332.066C217.986 327.413 215.502 321.551 212.8 315.107C212.617 314.671 212.433 314.231 212.248 313.79C206.944 301.135 200.742 286.337 192.578 273.369C185.95 262.841 176.384 256.351 167.153 252.518C158.511 248.929 150.233 247.699 145.092 247.647ZM168.201 249.978C177.811 253.968 187.891 260.775 194.895 271.901C203.184 285.066 209.463 300.051 214.747 312.66C214.941 313.124 215.134 313.584 215.326 314.041C218.038 320.508 220.48 326.266 222.814 330.806C225.18 335.409 227.313 338.502 229.311 339.889C232.436 342.06 242.62 347.409 255.015 353.657C267.355 359.876 281.751 366.921 293.188 372.452C299.222 375.37 304.333 380.918 304.312 388.054C304.287 396.134 301.754 405.909 292.476 411.979L292.138 412.2L150.429 412.915L150.422 412.915H39.0076C34.0154 413.399 26.8681 412.311 21.8586 406.529C16.8169 400.71 14.2685 390.515 17.7156 373.513L17.7421 373.382C21.994 352.41 26.4431 330.466 32.4986 311.27C38.5472 292.096 46.2632 275.439 57.1776 265.22C74.5067 248.994 95.2115 244.905 102.847 244.905H103.738L104.099 245.721C105.843 249.657 111.354 257.727 124.86 257.727C131.665 257.727 135.876 255.688 138.489 253.281C141.128 250.849 142.264 247.925 142.694 245.981L142.927 244.929L144 244.905C149.399 244.782 158.606 245.993 168.201 249.978Z" fill="#00519D"/>
<path d="M86.5153 356.69L97.1665 313.238L95.0362 356.69L143.537 368.557C149.765 370.081 155.588 373.966 156.767 380.287C158.869 391.562 154.676 403.552 149.712 407.978C153.973 401.862 153.973 378.773 149.002 375.211C145.026 372.362 95.7463 363.101 71.6038 358.827L86.5153 356.69Z" fill="#00519D"/>
<path d="M192.317 301.841L218.59 411.54H229.951L192.317 301.841Z" fill="#00519D"/>
<path d="M115.627 220.635C112.786 237.161 108.763 238.918 107.106 237.731C87.2237 224.909 87.7034 183.943 100.005 170.06C111.366 157.238 119.887 162.224 143.32 156.525C166.752 150.827 174.563 160.799 170.303 173.621C164.17 192.079 144.74 182.169 139.769 184.306C134.799 186.443 128.408 192.142 125.568 203.539C122.728 214.937 121.307 212.799 119.177 206.388C117.047 199.978 111.366 190.717 107.106 202.115C103.697 211.232 111.366 218.261 115.627 220.635Z" fill="#00519D"/>
<path d="M199.417 411.54C199.417 392.165 170.777 386.371 156.813 385.896C156.813 395.584 150.895 407.029 147.582 411.54H199.417Z" fill="white"/>
<path fill-rule="evenodd" clip-rule="evenodd" d="M155.442 384.474L156.859 384.522C163.954 384.764 174.79 386.351 183.903 390.372C192.977 394.376 200.787 401.02 200.787 411.54V412.915H144.87L146.478 410.725C148.06 408.572 150.315 404.685 152.172 400.138C154.032 395.583 155.442 390.489 155.442 385.896V384.474ZM158.143 387.332C157.89 392.006 156.454 396.903 154.707 401.18C153.283 404.668 151.624 407.811 150.156 410.166H197.993C197.355 402.065 191.077 396.541 182.8 392.889C174.665 389.299 164.983 387.713 158.143 387.332Z" fill="#00519D"/>
<path d="M337.43 410.231C337.43 393.009 314.734 389.349 302.491 388.927C302.491 397.538 294.89 406.221 291.985 410.231H337.43Z" fill="white"/>
<path fill-rule="evenodd" clip-rule="evenodd" d="M301.121 387.504L302.538 387.553C308.728 387.766 317.661 388.797 325.095 392.016C332.547 395.244 338.8 400.838 338.8 410.231V411.605H289.295L290.877 409.423C291.285 408.859 291.766 408.228 292.294 407.535C293.735 405.642 295.527 403.289 297.156 400.592C299.375 396.916 301.121 392.855 301.121 388.926V387.504ZM303.799 390.358C303.439 394.539 301.571 398.586 299.499 402.016C297.92 404.631 296.144 407.006 294.737 408.856H336.006C335.443 401.827 330.549 397.373 324.009 394.54C317.54 391.738 309.727 390.666 303.799 390.358Z" fill="#00519D"/>
<path fill-rule="evenodd" clip-rule="evenodd" d="M17.5392 385.828C17.2035 399.58 22.0103 411.54 36.6774 411.54H49.5943C46.1861 388.746 28.1574 374.975 19.6363 370.938C19.4492 371.86 19.2625 372.78 19.0763 373.699L19.0585 373.787C18.1502 378.266 17.6689 382.265 17.5392 385.828Z" fill="#00519D"/>
<path d="M126.853 234.665C133.466 236.877 138.048 235.587 140.345 234.665L142.475 244.638C133.657 243.532 128.69 237.199 126.853 234.665Z" fill="#00519D"/>
<path d="M233.33 13.1329C233.33 7.24987 238.099 2.48071 243.982 2.48071H471.751C477.634 2.48071 482.403 7.24986 482.403 13.1329V240.902C482.403 246.785 477.634 251.554 471.751 251.554H243.982C238.099 251.554 233.33 246.785 233.33 240.902V13.1329Z" fill="white"/>
<path fill-rule="evenodd" clip-rule="evenodd" d="M231.733 13.1329C231.733 6.36803 237.217 0.884033 243.982 0.884033H471.751C478.516 0.884033 484 6.36801 484 13.1328V240.902C484 247.667 478.516 253.151 471.751 253.151H243.982C237.217 253.151 231.733 247.667 231.733 240.902V13.1329ZM243.982 4.07728C238.981 4.07728 234.927 8.1316 234.927 13.1329V240.902C234.927 245.903 238.981 249.957 243.982 249.957H471.751C476.753 249.957 480.807 245.903 480.807 240.902V13.1328C480.807 8.1316 476.753 4.07728 471.751 4.07728H243.982Z" fill="#00519D"/>
<path d="M233.33 13.1329C233.33 7.24986 238.099 2.48071 243.982 2.48071H471.751C477.634 2.48071 482.403 7.24986 482.403 13.1329V39.2031H233.33V13.1329Z" fill="#00519D"/>
<path d="M267.03 21.1031C267.03 25.511 263.457 29.0843 259.049 29.0843C254.641 29.0843 251.067 25.511 251.067 21.1031C251.067 16.6951 254.641 13.1218 259.049 13.1218C263.457 13.1218 267.03 16.6951 267.03 21.1031Z" fill="white"/>
<path d="M293.636 21.1031C293.636 25.511 290.063 29.0843 285.655 29.0843C281.247 29.0843 277.674 25.511 277.674 21.1031C277.674 16.6951 281.247 13.1218 285.655 13.1218C290.063 13.1218 293.636 16.6951 293.636 21.1031Z" fill="white"/>
<path d="M320.236 21.1031C320.236 25.511 316.663 29.0843 312.255 29.0843C307.847 29.0843 304.274 25.511 304.274 21.1031C304.274 16.6951 307.847 13.1218 312.255 13.1218C316.663 13.1218 320.236 16.6951 320.236 21.1031Z" fill="white"/>
<path d="M112.521 101.61C110.092 106.495 102.926 108.094 99.646 108.283L99.2881 128.986C100.067 129.695 102.134 131.709 104.17 134.09C105.354 135.957 121.192 135.684 128.963 135.315C130.676 134.904 134.232 133.871 134.751 133.03C135.4 131.978 140.665 112.788 137.704 108.119C135.335 104.385 126.038 104.941 121.686 105.686C124.41 101.948 124.235 95.6483 123.404 90.7432C122.961 88.1292 120.075 86.8874 117.668 88.0564C116.037 88.8483 115.083 90.5609 114.955 92.352C114.774 94.8938 114.143 98.3464 112.521 101.61Z" fill="white"/>
<path d="M83.6068 105.613C83.603 103.886 85.0163 102.483 86.7635 102.48L98.1717 102.455C99.9189 102.451 101.338 103.848 101.342 105.574L101.402 132.423C101.406 134.15 99.9927 135.552 98.2454 135.556L86.8373 135.581C85.09 135.585 83.6705 134.188 83.6666 132.462L83.6068 105.613Z" fill="#00519D"/>
<path d="M177.604 37.8108L178.316 44.153C178.359 44.5389 178.184 44.9118 177.863 45.1197L173.772 47.7647C172.892 48.3338 173.359 49.7197 174.415 49.675L179.417 49.4634C179.782 49.4479 180.133 49.6268 180.34 49.9339L183.427 54.5239C184.007 55.3868 185.336 54.9928 185.317 53.9635L185.211 48.2668C185.205 47.9324 185.361 47.6192 185.629 47.4258L189.289 44.7853C190.113 44.1905 189.637 42.8683 188.611 42.9036L184.157 43.0569C183.799 43.0692 183.456 42.8953 183.25 42.5972L179.48 37.1423C178.864 36.2502 177.484 36.7417 177.604 37.8108Z" fill="#E7E8FF"/>
<path d="M35.6346 228.123L33.8669 230.487C33.7593 230.631 33.5823 230.701 33.408 230.67L31.1914 230.267C30.7145 230.18 30.4331 230.795 30.8036 231.114L32.5572 232.626C32.6852 232.737 32.7468 232.908 32.7192 233.077L32.307 235.602C32.2296 236.077 32.8024 236.365 33.1218 236.011L34.8896 234.057C34.9934 233.943 35.1449 233.886 35.2965 233.906L37.3665 234.174C37.8328 234.235 38.0909 233.638 37.7338 233.325L36.1832 231.967C36.0587 231.858 35.9981 231.69 36.023 231.525L36.4789 228.492C36.5534 227.996 35.9326 227.725 35.6346 228.123Z" fill="#E7E8FF"/>
<path d="M271.753 308.341L233.291 395.45C231.361 399.823 234.572 404.732 239.362 404.732H356.724C359.419 404.732 361.846 403.106 362.865 400.617L398.522 313.508C400.303 309.156 397.094 304.391 392.38 304.391H277.824C275.194 304.391 272.812 305.941 271.753 308.341Z" fill="white"/>
<path fill-rule="evenodd" clip-rule="evenodd" d="M277.824 305.765C275.74 305.765 273.853 306.993 273.014 308.895L234.553 396.003C233.023 399.468 235.567 403.358 239.363 403.358H356.724C358.859 403.358 360.783 402.069 361.59 400.097L397.246 312.989C398.658 309.541 396.115 305.765 392.38 305.765H277.824ZM270.492 307.787C271.772 304.888 274.648 303.017 277.824 303.017H392.38C398.073 303.017 401.949 308.772 399.798 314.028L364.141 401.136C362.911 404.142 359.979 406.106 356.724 406.106H239.363C233.577 406.106 229.699 400.177 232.031 394.896L270.492 307.787Z" fill="#00519D"/>
<path d="M307.6 347.593C309.757 342.604 314.682 339.372 320.13 339.372C329.939 339.372 336.544 349.387 332.66 358.371L331.692 360.61C329.534 365.599 324.609 368.83 319.162 368.83C309.352 368.83 302.747 358.815 306.632 349.832L307.6 347.593Z" fill="#00519D"/>
<path d="M354.881 413.017H151.199C147.886 413.017 145.2 410.338 145.2 407.034C145.2 403.729 147.886 401.05 151.199 401.05H354.881C359.18 401.05 362.084 405.427 360.403 409.374C359.462 411.583 357.288 413.017 354.881 413.017Z" fill="#00519D"/>
<path d="M402.773 349.451C395.65 353.523 406.115 373.139 412.474 382.8C412.7 383.143 413.118 383.288 413.511 383.168L420.883 380.929C421.33 380.793 421.612 380.348 421.54 379.884C418.896 362.865 411.714 344.34 402.773 349.451Z" fill="#00519D"/>
<path d="M424.667 296.748C403.043 301.794 409.029 354.219 414.901 380.736C415.019 381.266 415.555 381.564 416.072 381.407L433.502 376.11C433.831 376.01 434.078 375.748 434.149 375.409C440.114 346.724 446.418 291.673 424.667 296.748Z" fill="white"/>
<path fill-rule="evenodd" clip-rule="evenodd" d="M415.81 380.502L433.237 375.206C436.211 360.896 439.261 340.051 438.866 323.447C438.668 315.121 437.605 307.989 435.323 303.283C434.188 300.943 432.784 299.272 431.103 298.319C429.439 297.376 427.404 297.078 424.874 297.669C419.883 298.833 416.388 302.737 414.063 308.617C411.734 314.506 410.645 322.233 410.41 330.712C409.94 347.647 412.886 367.286 415.81 380.502ZM412.325 307.926C414.776 301.73 418.641 297.188 424.461 295.83C427.369 295.152 429.894 295.464 432.026 296.672C434.139 297.87 435.765 299.891 437.004 302.447C439.471 307.532 440.537 315.004 440.737 323.391C441.136 340.21 438.053 361.224 435.065 375.598C434.921 376.291 434.413 376.817 433.768 377.013L416.339 382.31C415.328 382.617 414.231 382.035 413.989 380.945C411.044 367.645 408.064 347.827 408.54 330.669C408.777 322.097 409.878 314.115 412.325 307.926Z" fill="#00519D"/>
<path d="M445.082 326.887C432.177 328.891 429.865 360.426 430.275 376.878C430.29 377.494 430.882 377.913 431.468 377.735L440.905 374.866C441.176 374.784 441.393 374.591 441.5 374.326C448.293 357.542 458.204 324.85 445.082 326.887Z" fill="#00519D"/>
<path fill-rule="evenodd" clip-rule="evenodd" d="M426.173 318.335L426.375 304.239L424.503 304.222L424.088 333.079L416.899 326.133L415.6 327.499L424.051 335.665L423.643 364.062L417.344 358.77L416.141 360.223L423.608 366.496L423.429 378.898L425.302 378.915L425.666 353.605L433.151 346.21L431.844 344.865L425.704 350.931L426.133 321.098L432.322 314.582L430.974 313.28L426.173 318.335Z" fill="#00519D"/>
<path d="M399.83 375.184C399.457 373.421 400.785 371.759 402.567 371.759H445.27C447.013 371.759 448.332 373.353 448.025 375.089L441.744 410.683C441.506 412.034 440.345 413.017 438.989 413.017H410.104C408.784 413.017 407.644 412.084 407.368 410.778L399.83 375.184Z" fill="#00519D"/>
<path d="M216.496 140.857C214.962 145.13 218.142 150.285 219.924 152.328L207.054 167.18C206.177 167.134 204.027 163.42 200.108 162.42C196.189 161.42 192.691 158.507 188.421 153.712C187.678 152.463 184.41 148.444 184.888 144.18C185.364 139.916 193.504 130.768 198.024 129.798C201.639 129.022 207.775 134.194 209.843 137.193C210.728 134.432 212.056 132.862 214.658 130.168C216.486 128.909 219.737 128.7 220.425 130.799C220.891 132.221 220.413 133.78 219.409 134.896C217.985 136.481 217.521 138.003 216.496 140.857Z" fill="white"/>
<path fill-rule="evenodd" clip-rule="evenodd" d="M218.019 128.201C216.664 128.138 215.17 128.57 214.071 129.327L213.986 129.386L213.914 129.46C211.84 131.606 210.485 133.127 209.533 135.156C208.361 133.843 206.78 132.413 205.108 131.242C203.941 130.426 202.694 129.71 201.473 129.247C200.268 128.791 198.988 128.543 197.807 128.797C196.455 129.087 194.953 129.949 193.508 131.039C192.04 132.147 190.536 133.561 189.172 135.07C187.808 136.579 186.564 138.203 185.624 139.74C184.702 141.248 184.007 142.775 183.863 144.068C183.592 146.482 184.384 148.763 185.273 150.534C185.909 151.802 186.694 152.971 187.169 153.679C187.334 153.925 187.462 154.115 187.533 154.234L187.583 154.318L187.648 154.391C191.934 159.205 195.609 162.33 199.85 163.412C201.559 163.848 202.923 164.888 204.015 165.905C204.363 166.229 204.632 166.5 204.889 166.758C205.069 166.938 205.243 167.113 205.433 167.295C205.633 167.487 205.847 167.682 206.06 167.834C206.241 167.964 206.575 168.181 206.998 168.203L207.505 168.23L221.287 152.325L220.704 151.657C219.878 150.709 218.704 149.008 217.926 147.051C217.143 145.082 216.82 143.003 217.468 141.2C217.548 140.977 217.624 140.763 217.697 140.558C218.584 138.078 219.014 136.873 220.178 135.578C221.372 134.249 222.009 132.32 221.406 130.481C220.876 128.866 219.373 128.265 218.019 128.201ZM217.919 130.248C218.819 130.29 219.285 130.634 219.444 131.117C219.773 132.122 219.453 133.31 218.64 134.215C217.194 135.824 216.628 137.414 215.784 139.787C215.701 140.021 215.614 140.264 215.524 140.514C214.638 142.984 215.138 145.619 216.007 147.806C216.719 149.598 217.718 151.188 218.581 152.309L206.87 165.823C206.869 165.822 206.868 165.821 206.867 165.82C206.753 165.711 206.602 165.56 206.43 165.388C206.133 165.092 205.774 164.733 205.428 164.41C204.245 163.309 202.575 161.992 200.366 161.428C196.787 160.515 193.48 157.836 189.257 153.103C189.117 152.875 188.946 152.621 188.754 152.337C188.287 151.644 187.695 150.765 187.12 149.619C186.309 148.003 185.706 146.142 185.913 144.293C186.007 143.454 186.509 142.238 187.387 140.802C188.249 139.393 189.412 137.87 190.707 136.438C192.002 135.005 193.411 133.684 194.755 132.67C196.122 131.639 197.333 130.994 198.24 130.799C198.867 130.665 199.709 130.773 200.736 131.162C201.747 131.544 202.841 132.163 203.918 132.917C206.085 134.434 208.04 136.394 208.991 137.772L210.184 139.503L210.825 137.503C211.626 135.005 212.792 133.582 215.326 130.956C216.049 130.487 217.052 130.207 217.919 130.248ZM207.327 166.21C207.327 166.209 207.322 166.207 207.315 166.203C207.323 166.208 207.327 166.21 207.327 166.21Z" fill="#00519D"/>
<path d="M335.973 103.45L332.506 116.076C330.773 122.389 335.973 129.85 350.417 129.85C361.973 129.85 363.707 119.137 363.129 113.78L360.24 99.4321C363.129 96.5624 365.44 94.8407 365.44 81.0665C365.44 63.8488 356.195 57.5356 345.217 57.5356C334.239 57.5356 324.995 66.7085 324.994 83.3622C324.994 97.7103 332.698 102.302 335.973 103.45Z" fill="white"/>
<path fill-rule="evenodd" clip-rule="evenodd" d="M331.781 64.861C328.285 69.0128 326.026 75.2197 326.026 83.3622C326.026 90.3444 327.896 94.8556 330.08 97.7402C332.272 100.636 334.835 101.964 336.316 102.483L337.22 102.8L333.501 116.345C332.738 119.123 333.481 122.176 336.095 124.578C338.732 127.001 343.357 128.825 350.418 128.825C355.795 128.825 358.779 126.373 360.414 123.34C362.083 120.245 362.374 116.477 362.108 113.935L359.12 99.0953L359.511 98.7076C359.621 98.5976 359.73 98.4901 359.837 98.3845C361.143 97.0965 362.171 96.0815 362.957 93.9817C363.829 91.6474 364.409 87.9235 364.409 81.0665C364.409 72.6341 362.147 67.0439 358.709 63.5618C355.271 60.0797 350.512 58.5601 345.217 58.5601C340.035 58.5601 335.268 60.7183 331.781 64.861ZM330.198 63.5465C334.077 58.9393 339.422 56.5111 345.217 56.5111C350.9 56.5111 356.253 58.1481 360.182 62.127C364.11 66.1059 366.471 72.2811 366.471 81.0665C366.471 87.9836 365.895 92.0077 364.89 94.6952C363.956 97.1945 362.66 98.4909 361.36 99.7708L364.149 113.625L364.154 113.671C364.458 116.484 364.165 120.725 362.233 124.308C360.257 127.971 356.596 130.874 350.418 130.874C343.033 130.874 337.835 128.968 334.695 126.082C331.531 123.176 330.54 119.342 331.511 115.806L334.736 104.061C332.954 103.277 330.532 101.746 328.431 98.9717C325.944 95.6865 323.963 90.7281 323.963 83.3621C323.963 74.851 326.327 68.1445 330.198 63.5465Z" fill="#00519D"/>
<path d="M346.371 123.537C357.002 123.537 362.356 116.65 363.704 113.206L363.76 113.206C373.972 113.206 390.61 113.206 407.616 128.702C424.653 144.226 438.878 166.007 451.748 204.784C456.79 219.973 457.354 240.966 455.813 249.193H281.722C262.078 249.193 246.497 245.706 241.078 239.1C228.366 223.604 201.311 176.88 202.466 171.141C203.622 165.401 218.066 147.214 222.11 148.936C225.346 150.313 241.755 162.393 258.69 175.178C278.334 123.537 318.637 112.441 331.926 113.206C332.311 116.65 335.74 123.537 346.371 123.537Z" fill="white"/>
<path fill-rule="evenodd" clip-rule="evenodd" d="M258.219 173.536C278.199 122.567 318.362 111.399 331.986 112.183L332.856 112.233L332.952 113.093C333.12 114.594 333.974 116.952 336.025 118.927C338.049 120.877 341.299 122.512 346.371 122.512C356.493 122.512 361.517 115.968 362.744 112.835L362.999 112.181L363.767 112.181C374.036 112.181 391.012 112.181 408.314 127.947C425.518 143.623 439.821 165.575 452.728 204.463C455.285 212.165 456.696 221.302 457.278 229.527C457.86 237.74 457.621 245.144 456.827 249.38L456.671 250.217H281.723C271.847 250.217 262.954 249.341 255.822 247.619C248.736 245.907 243.208 243.318 240.278 239.747C233.866 231.929 223.889 216.312 215.676 201.968C211.565 194.788 207.88 187.9 205.292 182.437C203.999 179.709 202.97 177.316 202.299 175.411C201.964 174.459 201.711 173.609 201.56 172.887C201.416 172.193 201.341 171.507 201.456 170.939C201.785 169.301 203.002 166.947 204.583 164.461C206.19 161.932 208.258 159.138 210.415 156.582C212.567 154.032 214.837 151.685 216.851 150.074C217.854 149.271 218.835 148.618 219.736 148.223C220.601 147.844 221.609 147.608 222.517 147.994C223.436 148.385 225.155 149.462 227.39 150.972C229.661 152.507 232.555 154.553 235.87 156.951C242.216 161.54 250.128 167.434 258.219 173.536ZM331.047 114.198C317.406 113.948 278.741 125.365 259.655 175.54L259.166 176.824L258.066 175.993C249.6 169.602 241.271 163.391 234.656 158.607C231.348 156.215 228.474 154.183 226.23 152.666C223.948 151.125 222.403 150.175 221.704 149.877C221.601 149.833 221.273 149.789 220.569 150.098C219.902 150.39 219.082 150.92 218.145 151.67C216.277 153.164 214.105 155.4 211.996 157.898C209.892 160.391 207.88 163.112 206.327 165.555C204.748 168.039 203.726 170.11 203.478 171.341C203.448 171.491 203.449 171.842 203.58 172.471C203.706 173.072 203.927 173.829 204.246 174.734C204.884 176.544 205.878 178.864 207.158 181.565C209.715 186.962 213.372 193.799 217.469 200.955C225.672 215.281 235.579 230.774 241.878 238.452C244.368 241.488 249.339 243.945 256.31 245.628C263.234 247.3 271.954 248.168 281.723 248.168H454.942C455.576 244.053 455.758 237.268 455.221 229.671C454.646 221.546 453.254 212.591 450.769 205.104C437.936 166.438 423.788 144.828 406.919 129.457C390.55 114.541 374.575 114.237 364.383 114.23C362.551 118.109 356.895 124.561 346.371 124.561C340.812 124.561 337.032 122.752 334.589 120.398C332.515 118.401 331.446 116.051 331.047 114.198Z" fill="#00519D"/>
<path d="M307.659 91.3968C298.877 100.58 299.378 116.649 300.726 123.537C316.904 113.895 329.037 112.632 333.082 113.206L335.971 103.449C329.615 101.727 325.571 95.9882 324.993 82.788C324.531 72.2279 329.808 64.9964 332.504 62.7006C341.749 62.1267 346.371 73.6052 349.26 78.1966C351.571 81.8697 353.305 81.2575 353.882 80.4923C356.771 73.6052 361.971 73.0313 363.127 80.4923C364.051 86.4611 359.66 89.4837 357.349 90.249L363.127 113.206C374.683 112.747 387.972 116.841 393.172 118.945C394.905 100.58 380.461 94.2665 375.838 82.788C371.216 71.3095 377.572 65.5703 372.949 58.1093C369.523 52.5793 363.127 51.7961 359.082 50.6483C355.038 49.5005 352.727 44.909 348.105 42.6133C340.015 39.7437 332.312 46.8221 330.193 51.7961C328.845 51.6048 324.993 52.1405 320.371 55.8136C307.082 64.9964 318.637 79.9184 307.659 91.3968Z" fill="#00519D"/>
<path d="M400.267 179.215C405.686 204.784 411.928 240.896 411.106 249.193H419.234C419.528 233.185 405.009 187.962 400.267 179.215Z" fill="#00519D"/>
<path d="M348.104 102.875C341.17 104.712 337.126 104.023 335.97 103.449L334.237 109.763C341.633 110.681 346.563 105.554 348.104 102.875Z" fill="#00519D"/>
<path d="M285.111 171.814C280.233 192.269 277.208 231.923 276.304 249.193H270.885C271.969 221.202 280.82 185.944 285.111 171.814Z" fill="#00519D"/>
<path d="M243.111 240.445C260.995 236.139 270.433 238.651 272.917 240.445L271.562 249.193C258.014 249.193 246.95 243.361 243.111 240.445Z" fill="#00519D"/>
</svg>
