<svg width="326" height="326" viewBox="0 0 326 326" fill="none" xmlns="http://www.w3.org/2000/svg">
<path d="M325.273 163.308C325.273 253.13 252.459 325.945 162.637 325.945C72.8149 325.945 0 253.13 0 163.308C0 73.4866 72.8149 0.671631 162.637 0.671631C252.459 0.671631 325.273 73.4866 325.273 163.308Z" fill="#B72100"/>
<g clip-path="url(#clip0_141_377)">
<path d="M105.598 71.7397L73.8015 103.536L90.0379 119.772L130.178 160.589L90.0379 200.728L73.8015 216.288L105.598 248.761L121.834 232.525L162.65 191.708L202.79 232.525L218.35 248.761L250.823 216.288L234.586 200.728L193.77 160.589L234.586 119.772L250.823 103.536L218.35 71.7397L202.79 87.9761L162.65 128.116L121.834 87.9761L105.598 71.7397Z" fill="white"/>
</g>
<defs>
<clipPath id="clip0_141_377">
<rect width="180.404" height="180.404" fill="white" transform="translate(73.8015 71.7397)"/>
</clipPath>
</defs>
</svg>
