<svg width="25" height="25" viewBox="0 0 25 25" fill="none" xmlns="http://www.w3.org/2000/svg">
<path d="M21.9102 15.1367C22.0419 15.1355 22.1716 15.1692 22.2861 15.2344C22.3701 15.2816 22.4439 15.3451 22.503 15.4211C22.5622 15.4972 22.6056 15.5843 22.6307 15.6773C22.6558 15.7703 22.6621 15.8674 22.6492 15.9629C22.6363 16.0584 22.6045 16.1503 22.5557 16.2334C21.6143 17.8047 18.75 21.4722 12.5 21.4722C9.79151 21.4722 7.41603 20.7607 5.44288 19.3584C3.81886 18.2075 2.9087 16.9048 2.47511 16.2773C2.42012 16.1983 2.3815 16.109 2.36154 16.0147C2.34157 15.9205 2.34067 15.8232 2.35886 15.7286C2.37706 15.634 2.414 15.544 2.46751 15.4639C2.52102 15.3838 2.59001 15.3152 2.67042 15.2622C2.83477 15.1536 3.03496 15.1132 3.22856 15.1497C3.42217 15.1861 3.59396 15.2965 3.70753 15.4575C4.4922 16.5859 6.88478 20.0195 12.5 20.0195C17.981 20.0195 20.459 16.8599 21.2661 15.5049C21.331 15.3917 21.4249 15.298 21.5381 15.2332C21.6513 15.1685 21.7798 15.1352 21.9102 15.1367Z" fill="white"/>
<path d="M9.35105 0.781249C9.41337 0.780506 9.47554 0.787559 9.53611 0.802245C14.0698 1.92529 15.7627 6.45752 15.8315 6.646L15.8423 6.6875C15.8794 6.81836 16.789 9.92627 15.3926 11.7466C14.7524 12.5767 13.7788 13.0024 12.4931 13.0024C11.2978 13.0024 10.4355 12.6309 9.84275 11.8618C9.35447 11.2339 9.15915 10.4595 8.97019 9.71338C8.57322 8.15967 8.2866 7.34375 6.63669 7.25977C5.91209 7.22314 5.43601 7.64697 5.16599 8.00781C4.43601 8.9917 4.30906 10.5957 4.85935 12.0117C5.56638 13.8394 8.07566 17.2852 12.5 17.2852C14.3886 17.2852 16.124 16.6782 17.5156 15.5376C18.6675 14.5928 19.5801 13.2588 20.0195 11.8877C20.8344 9.33496 19.7656 5.32226 19.7553 5.28564C19.7304 5.19225 19.7244 5.09481 19.7377 4.99906C19.751 4.90332 19.7833 4.8112 19.8328 4.72815C19.8823 4.6451 19.9479 4.57279 20.0257 4.5155C20.1036 4.4582 20.1921 4.41707 20.2861 4.39453C20.476 4.34403 20.6782 4.36993 20.8492 4.46668C21.0202 4.56342 21.1466 4.72333 21.2011 4.91211C21.25 5.09522 22.3916 9.375 21.4502 12.3252C20.4248 15.522 17.2602 18.7446 12.4985 18.7446C10.2978 18.7446 8.21873 17.9966 6.48337 16.584C5.13962 15.4854 4.04197 14.0098 3.46775 12.5347C2.73777 10.6514 2.93357 8.5376 3.96531 7.15674C4.65281 6.23584 5.63181 5.7544 6.71628 5.80664C9.54148 5.94824 10.0493 7.92041 10.4194 9.35889C10.8003 10.8345 11.0439 11.5459 12.4985 11.5459C13.2973 11.5459 13.8584 11.3262 14.2075 10.8711C14.6836 10.2485 14.7207 9.27539 14.6679 8.56934C14.6333 8.07742 14.5499 7.59016 14.4189 7.11475C14.3027 6.82178 12.7895 3.11084 9.1655 2.21289C9.07183 2.1907 8.98351 2.15012 8.90566 2.0935C8.82781 2.03688 8.76198 1.96536 8.71201 1.88308C8.66204 1.80081 8.62891 1.70942 8.61456 1.61424C8.6002 1.51905 8.6049 1.42197 8.62839 1.32861C8.67262 1.17102 8.76718 1.03222 8.89766 0.93339C9.02814 0.834561 9.18737 0.781129 9.35105 0.781249Z" fill="white"/>
<path d="M15.1704 1.11621C15.272 1.116 15.3726 1.13625 15.4663 1.17577C15.5599 1.21528 15.6446 1.27324 15.7153 1.34619C17.5298 3.25049 18.5561 5.37988 18.9424 8.04248V8.05664C19.1592 9.81934 18.8418 12.3149 17.2866 14.0308C16.1387 15.2969 14.5249 15.9404 12.4985 15.9404C10.102 15.9404 8.21874 14.8262 7.04442 12.7231C6.19237 11.1953 6.02342 9.67285 6.01903 9.61035C6.0101 9.51399 6.02026 9.41681 6.04894 9.32437C6.07762 9.23194 6.12425 9.14608 6.18616 9.07169C6.24807 8.99731 6.32405 8.93587 6.40974 8.89089C6.49543 8.84591 6.58915 8.81828 6.68553 8.80957C6.88001 8.78847 7.07499 8.84469 7.22837 8.9661C7.38176 9.08751 7.48125 9.26437 7.50536 9.4585C7.63397 10.372 7.92959 11.254 8.37743 12.0605C9.28758 13.6665 10.6724 14.4829 12.5039 14.4829C14.0859 14.4829 15.3237 14.0068 16.1753 13.0669C17.4028 11.7119 17.6401 9.62451 17.4717 8.24365C17.1333 5.88916 16.2285 4.01611 14.6308 2.34229C14.5642 2.27292 14.5121 2.19085 14.4778 2.10096C14.4435 2.01107 14.4275 1.9152 14.431 1.81904C14.4345 1.72288 14.4572 1.6284 14.4979 1.54122C14.5386 1.45403 14.5965 1.37592 14.668 1.31152C14.8056 1.18672 14.9846 1.11716 15.1704 1.11621Z" fill="white"/>
<path d="M6.81152 3.21387C8.39844 3.21387 9.74756 3.65332 10.8271 4.52686C12.9961 6.27441 13.2393 9.12061 13.25 9.24072C13.2653 9.43789 13.2016 9.63305 13.073 9.78327C12.9444 9.93349 12.7614 10.0265 12.5642 10.0417C12.367 10.057 12.1719 9.99336 12.0217 9.86475C11.8714 9.73614 11.7785 9.55312 11.7632 9.35596C11.7578 9.31396 11.541 6.98584 9.86914 5.64502C8.87988 4.85498 7.55762 4.5415 5.92822 4.72461C5.73348 4.74823 5.53731 4.6938 5.38259 4.5732C5.22787 4.45261 5.12718 4.27567 5.10254 4.08105C5.09188 3.98492 5.10047 3.88762 5.1278 3.79484C5.15514 3.70205 5.20068 3.61565 5.26177 3.54065C5.32286 3.46565 5.39827 3.40357 5.4836 3.35803C5.56894 3.31249 5.66248 3.2844 5.75879 3.27539C6.10822 3.23462 6.45972 3.21408 6.81152 3.21387ZM5.55762 22.6177C6.17676 23.0205 8.37207 24.2188 12.5 24.2188C16.833 24.2188 19.0337 22.895 19.5205 22.5586C19.5527 22.5389 19.5828 22.516 19.6104 22.4902C19.6133 22.4874 19.6171 22.4857 19.6211 22.4854C19.6988 22.4175 19.7612 22.3338 19.8041 22.2399C19.8469 22.1461 19.8693 22.0441 19.8696 21.9409C19.8683 21.8442 19.8479 21.7487 19.8096 21.6598C19.7712 21.571 19.7158 21.4906 19.6463 21.4232C19.5769 21.3559 19.4948 21.3029 19.4049 21.2673C19.3149 21.2317 19.2188 21.2142 19.1221 21.2158C18.967 21.2159 18.8157 21.2635 18.6885 21.3521C18.6675 21.3677 16.7734 22.7593 12.4985 22.7593C8.22363 22.7593 6.31934 21.3726 6.29883 21.3623C6.16883 21.2659 6.01096 21.2145 5.84912 21.2158C5.75231 21.2143 5.65615 21.232 5.56618 21.2678C5.4762 21.3035 5.39418 21.3567 5.32481 21.4243C5.25544 21.4918 5.2001 21.5724 5.16196 21.6614C5.12381 21.7504 5.10362 21.8461 5.10254 21.9429C5.1025 22.0879 5.1458 22.2296 5.22689 22.3499C5.30797 22.4701 5.42315 22.5634 5.55762 22.6177Z" fill="white"/>
</svg>
