<svg width="15" height="17" viewBox="0 0 15 17" fill="none" xmlns="http://www.w3.org/2000/svg">
<path fill-rule="evenodd" clip-rule="evenodd" d="M7.22896 11.0145H6.93754C4.93472 11.0145 3.31131 9.41059 3.31131 7.43361V3.58089C3.31131 1.60311 4.93472 0 6.93754 0H7.22896C9.23178 0 10.856 1.60311 10.856 3.58089V7.43361C10.856 9.41059 9.23178 11.0145 7.22896 11.0145ZM12.5521 7.31905C12.5521 6.87822 12.9138 6.52188 13.3594 6.52188C13.805 6.52188 14.1667 6.87822 14.1667 7.31905C14.1667 10.9055 11.4171 13.867 7.891 14.2648V15.8695C7.891 16.3095 7.52935 16.6667 7.08374 16.6667C6.63732 16.6667 6.27647 16.3095 6.27647 15.8695V14.2648C2.74954 13.867 0 10.9055 0 7.31905C0 6.87822 0.361654 6.52188 0.807263 6.52188C1.25287 6.52188 1.61453 6.87822 1.61453 7.31905C1.61453 10.2965 4.0678 12.7191 7.08374 12.7191C10.0989 12.7191 12.5521 10.2965 12.5521 7.31905Z" fill="#00519D"/>
</svg>
