<svg width="224" height="283" viewBox="0 0 224 283" fill="none" xmlns="http://www.w3.org/2000/svg">
<path d="M67.8543 207.172H99.7388H159.106C167.916 207.172 176.41 203.889 182.933 197.962L191.841 189.867C202.926 179.795 202.514 162.149 191.127 152.42C179.155 142.192 179.612 123.353 192.228 113.933C203.412 105.583 205.395 89.5919 196.589 78.7596L180.342 58.7734C168.557 44.2761 149.589 37.7014 131.369 41.7981L60.2123 57.7973C57.5576 58.3942 54.7893 57.4886 52.9993 55.4377C47.71 49.3773 32.426 55.9546 32.1853 63.9976C31.8042 76.7354 30.6744 89.2447 29.8499 96.5222C29.6908 97.9267 29.3365 99.2895 28.6465 100.523C27.7708 102.088 26.6634 103.691 25.3316 105.358C10.6715 123.705 2.97957 147.002 12.484 168.482L14.1159 172.171C23.5315 193.45 44.5994 207.172 67.8543 207.172Z" fill="#D9D9D9"/>
<path d="M202.024 174.095C187.119 180.232 174.764 196.758 170.917 207.172H178.636C188.733 202.287 202.589 193.629 204.488 175.956C204.636 174.582 203.302 173.569 202.024 174.095Z" fill="#00519D"/>
<path d="M199.544 135.007C172.125 148.932 164.705 182.953 161.259 206.209H174.766C192.02 182.917 208.059 168.387 202.27 136.383C202.043 135.126 200.683 134.428 199.544 135.007Z" fill="white" stroke="#00519D" stroke-width="2"/>
<path d="M167.691 206.209L172.427 196.251M198.243 141.963L192.133 154.812M192.133 154.812L200.173 150.957M192.133 154.812L186.022 167.661M186.022 167.661L183.45 156.418M186.022 167.661L179.148 182.117M179.148 182.117L187.63 178.904M179.148 182.117L172.427 196.251M172.427 196.251L170.907 185.65" stroke="#00519D" stroke-width="2"/>
<path d="M75.7037 25.691C75.7037 21.3954 79.186 17.9132 83.4815 17.9132H171.967C176.262 17.9132 179.745 21.3954 179.745 25.691V198.71C179.745 203.005 176.262 206.487 171.967 206.487H83.4815C79.186 206.487 75.7037 203.005 75.7037 198.71V25.691Z" fill="white"/>
<path fill-rule="evenodd" clip-rule="evenodd" d="M75.0556 25.691C75.0556 21.0375 78.828 17.265 83.4815 17.265H171.967C176.62 17.265 180.393 21.0375 180.393 25.691V198.71C180.393 203.363 176.62 207.135 171.967 207.135H83.4815C78.828 207.135 75.0556 203.363 75.0556 198.71V25.691ZM83.4815 18.5613C79.5439 18.5613 76.3519 21.7534 76.3519 25.691V198.71C76.3519 202.647 79.5439 205.839 83.4815 205.839H171.967C175.904 205.839 179.096 202.647 179.096 198.71V25.691C179.096 21.7534 175.904 18.5613 171.967 18.5613H83.4815Z" fill="#00519D"/>
<path d="M105.259 172.265C105.259 171.709 105.127 171.273 104.863 170.956C104.599 170.639 104.136 170.34 103.473 170.058C102.81 169.777 102.197 169.492 101.636 169.203C101.075 168.915 100.591 168.58 100.185 168.2C99.7791 167.82 99.4679 167.38 99.2514 166.88C99.0349 166.381 98.9267 165.775 98.9267 165.064C98.9267 163.875 99.3123 162.896 100.083 162.129C100.634 161.577 101.315 161.189 102.127 160.966C102.707 160.807 103.168 160.32 103.168 159.718V159.356C103.168 158.911 103.529 158.55 103.975 158.55C104.42 158.55 104.782 158.911 104.782 159.356V159.771C104.782 160.375 105.23 160.869 105.797 161.074C106.563 161.349 107.196 161.796 107.694 162.414C108.161 162.984 108.475 163.656 108.635 164.431C108.78 165.132 108.179 165.719 107.463 165.719H106.626C105.91 165.719 105.387 165.114 105.136 164.444C105.078 164.29 105.007 164.152 104.924 164.03C104.653 163.635 104.267 163.438 103.767 163.438C103.32 163.438 102.972 163.586 102.722 163.882C102.478 164.17 102.356 164.572 102.356 165.085C102.356 165.606 102.498 166.022 102.783 166.331C103.067 166.634 103.523 166.926 104.152 167.208C104.782 167.482 105.374 167.771 105.928 168.073C106.49 168.369 106.973 168.707 107.379 169.087C107.785 169.467 108.103 169.911 108.333 170.417C108.563 170.924 108.678 171.533 108.678 172.244C108.678 173.448 108.309 174.43 107.572 175.19C107.044 175.739 106.377 176.123 105.57 176.342C105.017 176.491 104.579 176.956 104.579 177.528V177.836C104.579 178.281 104.217 178.642 103.772 178.642C103.326 178.642 102.965 178.281 102.965 177.836V177.518C102.965 176.944 102.529 176.475 101.973 176.333C100.972 176.078 100.17 175.613 99.566 174.936C99.0276 174.323 98.674 173.577 98.5049 172.699C98.3696 171.996 98.9693 171.41 99.6852 171.41H100.512C101.228 171.41 101.755 172.013 102.004 172.685C102.084 172.899 102.188 173.087 102.316 173.247C102.661 173.662 103.148 173.87 103.777 173.87C104.237 173.87 104.599 173.729 104.863 173.448C105.127 173.159 105.259 172.765 105.259 172.265Z" fill="#00519D"/>
<path d="M163.204 127.763C163.204 134.743 157.545 140.402 150.565 140.402C143.585 140.402 137.926 134.743 137.926 127.763C137.926 120.782 143.585 115.124 150.565 115.124C157.545 115.124 163.204 120.782 163.204 127.763Z" fill="white"/>
<path fill-rule="evenodd" clip-rule="evenodd" d="M150.565 115.772C143.943 115.772 138.574 121.14 138.574 127.763C138.574 134.385 143.943 139.753 150.565 139.753C157.187 139.753 162.556 134.385 162.556 127.763C162.556 121.14 157.187 115.772 150.565 115.772ZM137.278 127.763C137.278 120.425 143.227 114.476 150.565 114.476C157.903 114.476 163.852 120.425 163.852 127.763C163.852 135.101 157.903 141.05 150.565 141.05C143.227 141.05 137.278 135.101 137.278 127.763Z" fill="#00519D"/>
<path d="M152.72 125.653H157.37V129.718H152.72V135.216H148.424V129.718H143.759V125.653H148.424V120.309H152.72V125.653Z" fill="#00519D"/>
<path d="M107.037 24.2353L103.665 17.9129H151.784L147.819 24.5199C146.648 26.4722 144.538 27.6667 142.261 27.6667H112.756C110.362 27.6667 108.163 26.3474 107.037 24.2353Z" fill="#00519D"/>
<path d="M178.469 21.8144H76.3164C79.6978 18.4331 82.9274 17.8045 84.1195 17.9129H170.666C174.827 17.9129 177.602 20.5139 178.469 21.8144Z" fill="#00519D"/>
<path d="M178.419 202.79H77.0291C80.5431 206.226 82.574 206.864 83.8129 206.754H171.636C175.96 206.754 177.518 204.111 178.419 202.79Z" fill="#00519D"/>
<path d="M87.6318 43.7026C87.6318 42.6288 88.5024 41.7582 89.5762 41.7582H122.797C123.871 41.7582 124.742 42.6288 124.742 43.7026V43.7898C124.742 44.8637 123.871 45.7343 122.797 45.7343H89.5762C88.5024 45.7343 87.6318 44.8637 87.6318 43.7898V43.7026Z" fill="#00519D"/>
<path d="M117.833 167.624C117.833 166.55 118.704 165.679 119.778 165.679H152.999C154.073 165.679 154.943 166.55 154.943 167.624V167.711C154.943 168.785 154.073 169.656 152.999 169.656H119.778C118.704 169.656 117.833 168.785 117.833 167.711V167.624Z" fill="#E7E8FF"/>
<path d="M87.6318 186.42C87.6318 185.346 88.5024 184.476 89.5762 184.476H122.797C123.871 184.476 124.742 185.346 124.742 186.42V186.507C124.742 187.581 123.871 188.452 122.797 188.452H89.5762C88.5024 188.452 87.6318 187.581 87.6318 186.507V186.42Z" fill="#E7E8FF"/>
<path fill-rule="evenodd" clip-rule="evenodd" d="M172.441 27.1791V32.4806H171.144V27.1791H172.441Z" fill="#00519D"/>
<path fill-rule="evenodd" clip-rule="evenodd" d="M169.127 27.8418V32.4806H167.831V27.8418H169.127Z" fill="#00519D"/>
<path fill-rule="evenodd" clip-rule="evenodd" d="M165.814 29.1672V32.4806H164.518V29.1672H165.814Z" fill="#00519D"/>
<path fill-rule="evenodd" clip-rule="evenodd" d="M162.501 30.4925V32.4806H161.204V30.4925H162.501Z" fill="#00519D"/>
<path d="M88.6667 150.448C88.6667 149.911 89.102 149.476 89.6389 149.476H166.12C166.657 149.476 167.093 149.911 167.093 150.448C167.093 150.985 166.657 151.42 166.12 151.42H89.6389C89.102 151.42 88.6667 150.985 88.6667 150.448Z" fill="#E7E8FF"/>
<path d="M88.6667 53.8739C88.6667 53.3369 89.102 52.9016 89.6389 52.9016H166.12C166.657 52.9016 167.093 53.3369 167.093 53.8739C167.093 54.4108 166.657 54.8461 166.12 54.8461H89.6389C89.102 54.8461 88.6667 54.4108 88.6667 53.8739Z" fill="#E7E8FF"/>
<path d="M210.799 103.31H217V108.611H210.799V115.784H205.071V108.611H198.852V103.31H205.071V96.3391H210.799V103.31Z" fill="#00519D"/>
<path d="M202.66 68.7133H205.981V71.364H202.66V74.9502H199.591V71.364H196.259V68.7133H199.591V65.228H202.66V68.7133Z" fill="#00519D"/>
<path d="M41.701 59.6605L42.0553 63.4829C42.0769 63.7154 41.9671 63.9397 41.7707 64.0644L39.2727 65.6494C38.7353 65.9904 39.0005 66.8263 39.6382 66.8016L42.6569 66.6844C42.8773 66.6758 43.0866 66.7843 43.2076 66.9698L45.0149 69.7414C45.3546 70.2625 46.1606 70.0278 46.1613 69.4077L46.1648 65.9755C46.165 65.774 46.2624 65.5856 46.4263 65.4697L48.6645 63.8865C49.1688 63.5298 48.8973 62.7322 48.2782 62.7514L45.5903 62.8346C45.3744 62.8413 45.1697 62.7358 45.049 62.5558L42.8402 59.2617C42.479 58.7229 41.6412 59.0162 41.701 59.6605Z" fill="white"/>
<path d="M63.1611 37.9186L61.5427 39.0886C61.4443 39.1598 61.3147 39.17 61.207 39.115L59.8361 38.4155C59.5412 38.265 59.2369 38.6049 59.4167 38.884L60.2679 40.2051C60.33 40.3016 60.3368 40.4241 60.2857 40.5273L59.5224 42.0701C59.379 42.3601 59.6973 42.6591 59.9752 42.4953L61.5135 41.5888C61.6038 41.5356 61.7139 41.5294 61.8093 41.5721L63.1106 42.1558C63.4037 42.2873 63.6891 41.9546 63.5168 41.6824L62.7683 40.5005C62.7082 40.4055 62.7013 40.2859 62.75 40.1842L63.6411 38.3234C63.7869 38.019 63.4338 37.7214 63.1611 37.9186Z" fill="#E7E8FF"/>
<path d="M44.7478 118.676L43.3098 125.938C43.9809 126.683 46.1283 128.229 49.3496 128.452C52.5708 128.676 55.4853 127.242 56.5398 126.497L55.677 119.793C60.5664 117.279 58.8407 107.782 56.5398 104.43C54.2389 101.078 44.7478 100.52 42.4469 108.341C40.6062 114.598 43.2139 117.838 44.7478 118.676Z" fill="white"/>
<path fill-rule="evenodd" clip-rule="evenodd" d="M49.5657 102.676C46.7863 103.071 44.0169 104.77 42.9272 108.474C41.1374 114.558 43.6977 117.546 44.9927 118.253L45.3062 118.424L43.8487 125.785C44.5961 126.496 46.5418 127.771 49.3851 127.969C52.2347 128.166 54.8526 126.994 56.0065 126.264L55.1386 119.521L55.4433 119.365C57.616 118.247 58.4122 115.514 58.3055 112.442C58.2 109.4 57.2106 106.282 56.1242 104.699C55.6298 103.979 54.7151 103.368 53.5337 102.988C52.3594 102.61 50.9639 102.477 49.5657 102.676ZM53.8476 102.067C55.1649 102.49 56.2994 103.205 56.9554 104.161C58.1698 105.93 59.1938 109.237 59.3039 112.41C59.4088 115.433 58.6861 118.575 56.2138 120.054L57.072 126.721L56.8336 126.889C55.7169 127.678 52.6879 129.17 49.314 128.936C45.954 128.703 43.6866 127.093 42.9338 126.258L42.7732 126.08L44.193 118.909C42.4429 117.724 40.1826 114.272 41.9667 108.208C43.1779 104.09 46.3044 102.159 49.421 101.716C50.9708 101.495 52.5233 101.641 53.8476 102.067Z" fill="#00519D"/>
<path d="M119.953 144.123L117.139 145.758L120.566 151.846C124.021 150.152 126.121 151.844 129.828 148.747C132.793 146.27 130.694 142.981 129.274 141.646C131.081 140.729 134.723 138.667 134.842 137.753C134.991 136.611 133.59 135.483 132.846 135.802C132.25 136.056 128.101 138.407 126.101 139.55C125.386 139.28 123.692 138.941 122.632 139.739C121.572 140.538 120.404 142.994 119.953 144.123Z" fill="white"/>
<path fill-rule="evenodd" clip-rule="evenodd" d="M133.329 136.27C133.167 136.215 133.079 136.232 133.047 136.245C132.781 136.359 131.629 136.991 130.25 137.763C128.89 138.524 127.354 139.397 126.355 139.968L126.146 140.087L125.92 140.002C125.609 139.885 125.063 139.746 124.481 139.729C123.894 139.712 123.339 139.82 122.938 140.123C122.498 140.454 121.983 141.185 121.502 142.04C121.033 142.874 120.638 143.75 120.418 144.298L120.356 144.453L117.808 145.935L120.779 151.212C122.106 150.645 123.263 150.527 124.326 150.419C124.568 150.394 124.806 150.37 125.039 150.341C126.387 150.174 127.74 149.851 129.502 148.379C130.177 147.816 130.543 147.225 130.712 146.648C130.881 146.067 130.86 145.47 130.711 144.885C130.409 143.701 129.593 142.621 128.927 141.995L128.43 141.527L129.043 141.216C129.936 140.763 131.282 140.027 132.414 139.295C132.982 138.928 133.482 138.571 133.843 138.257C134.024 138.1 134.158 137.963 134.246 137.851C134.332 137.741 134.346 137.69 134.347 137.691C134.347 137.691 134.347 137.691 134.347 137.693C134.394 137.328 134.192 136.905 133.838 136.584C133.667 136.429 133.486 136.323 133.329 136.27ZM134.52 135.875C135.015 136.324 135.439 137.036 135.338 137.814C135.306 138.055 135.173 138.271 135.04 138.44C134.899 138.619 134.715 138.801 134.509 138.98C134.097 139.338 133.552 139.725 132.968 140.102C132.024 140.712 130.946 141.32 130.084 141.776C130.725 142.499 131.391 143.517 131.681 144.651C131.863 145.365 131.899 146.138 131.673 146.913C131.445 147.691 130.962 148.44 130.154 149.115C128.209 150.739 126.658 151.119 125.166 151.304C124.902 151.336 124.644 151.363 124.389 151.389C123.225 151.51 122.129 151.623 120.792 152.279L120.36 152.49L116.47 145.581L119.551 143.791C119.791 143.211 120.175 142.376 120.626 141.575C121.106 140.72 121.705 139.824 122.325 139.356C122.984 138.86 123.807 138.739 124.511 138.759C125.096 138.776 125.647 138.892 126.048 139.018C127.047 138.448 128.475 137.636 129.751 136.922C131.095 136.17 132.315 135.499 132.644 135.358C132.985 135.212 133.351 135.25 133.657 135.353C133.967 135.458 134.266 135.645 134.52 135.875Z" fill="#00519D"/>
<path d="M23.7522 133.76C31.8053 125.715 41.5841 125.939 50.7875 125.939C70.9203 125.939 85.0132 145.212 89.0398 144.933C93.0663 144.654 116.048 141.251 117.486 141.251C118.924 141.251 123.238 149.352 122.95 153.262C122.663 157.173 102.557 169.793 97.0929 172.028C92.7212 173.815 83 171.283 78.6858 169.793C79.0693 179.011 79.3761 198.061 77.5354 200.519C75.2345 203.592 72.646 204.709 58.2655 206.106C43.8849 207.502 18 204.988 16.2743 203.592C14.5486 202.195 8.22122 174.821 8.50883 169.793C8.79644 164.765 13.6858 143.816 23.7522 133.76Z" fill="white"/>
<path fill-rule="evenodd" clip-rule="evenodd" d="M50.0153 125.453C50.2733 125.453 50.5308 125.454 50.7876 125.454C61.018 125.454 69.6829 130.349 76.2539 135.153C78.6513 136.906 80.7862 138.659 82.6144 140.16C83.2901 140.715 83.9239 141.236 84.5135 141.709C85.6135 142.592 86.5523 143.305 87.3339 143.788C87.724 144.029 88.0619 144.204 88.3507 144.314C88.6427 144.426 88.855 144.459 89.0042 144.449C90.9948 144.311 97.721 143.394 104.163 142.507C104.692 142.434 105.219 142.362 105.741 142.29C108.389 141.924 110.91 141.577 112.932 141.307C114.143 141.145 115.177 141.011 115.954 140.917C116.712 140.825 117.267 140.766 117.486 140.766C117.692 140.766 117.88 140.837 118.032 140.92C118.187 141.005 118.339 141.12 118.484 141.251C118.775 141.512 119.082 141.873 119.393 142.296C120.018 143.147 120.697 144.309 121.317 145.583C121.937 146.859 122.505 148.263 122.9 149.602C123.293 150.933 123.527 152.236 123.448 153.297C123.401 153.943 122.968 154.668 122.373 155.4C121.761 156.154 120.908 156.997 119.892 157.89C117.86 159.677 115.131 161.704 112.25 163.67C106.5 167.597 100.071 171.336 97.2867 172.475C96.1039 172.958 94.5989 173.137 92.9761 173.127C91.3458 173.118 89.5566 172.918 87.7819 172.617C84.5889 172.076 81.4061 171.201 79.2135 170.484C79.3935 175.094 79.5444 181.777 79.4441 187.699C79.3913 190.815 79.2687 193.729 79.0428 196.024C78.9299 197.17 78.7903 198.172 78.6179 198.971C78.4504 199.747 78.2379 200.406 77.9393 200.804C77.3452 201.598 76.7166 202.286 75.8698 202.884C75.0245 203.481 73.9837 203.973 72.5807 204.403C69.7922 205.259 65.5005 205.891 58.3152 206.588C51.0811 207.291 40.9803 207.009 32.4863 206.38C28.2361 206.065 24.3774 205.662 21.469 205.25C20.0159 205.044 18.7924 204.835 17.8731 204.631C17.4141 204.529 17.0223 204.427 16.7119 204.325C16.4203 204.229 16.1396 204.114 15.9546 203.964C15.7567 203.804 15.5917 203.528 15.4514 203.251C15.2994 202.951 15.1362 202.566 14.9646 202.112C14.6207 201.203 14.2291 199.987 13.812 198.561C12.9772 195.708 12.0312 191.989 11.1492 188.16C10.267 184.331 9.44733 180.386 8.86584 177.081C8.28838 173.798 7.93451 171.088 8.01013 169.766C8.15744 167.191 9.46645 160.65 11.991 153.504C14.515 146.361 18.283 138.527 23.3941 133.422C31.3848 125.439 41.0582 125.446 50.0153 125.453ZM50.1093 126.423C41.0848 126.419 31.8027 126.414 24.1103 134.098C19.155 139.048 15.4452 146.717 12.9359 153.819C10.4273 160.92 9.14785 167.367 9.00754 169.82C8.93935 171.012 9.26857 173.609 9.85052 176.917C10.4285 180.202 11.2446 184.131 12.124 187.948C13.0036 191.766 13.945 195.466 14.773 198.296C15.1872 199.712 15.5709 200.902 15.9022 201.777C16.0681 202.216 16.2176 202.566 16.3477 202.823C16.4128 202.952 16.4696 203.05 16.5174 203.121C16.5685 203.197 16.5952 203.22 16.5941 203.219C16.6248 203.244 16.7485 203.313 17.0327 203.406C17.298 203.493 17.6534 203.587 18.0954 203.685C18.9781 203.881 20.1724 204.086 21.6133 204.29C24.4931 204.698 28.328 205.099 32.5623 205.413C41.0374 206.04 51.0693 206.317 58.2158 205.623C65.411 204.924 69.6038 204.299 72.2799 203.478C73.6092 203.071 74.5457 202.62 75.2822 202.1C76.0173 201.58 76.5751 200.977 77.1314 200.234C77.293 200.018 77.4736 199.544 77.6402 198.772C77.8018 198.022 77.9372 197.061 78.0484 195.931C78.2707 193.674 78.3926 190.789 78.4453 187.683C78.5505 181.473 78.3782 174.416 78.1867 169.813L78.1569 169.096L78.8531 169.336C80.9892 170.074 84.4705 171.071 87.9536 171.662C89.695 171.957 91.4254 172.148 92.9821 172.157C94.5464 172.166 95.896 171.991 96.899 171.581C99.5793 170.485 105.935 166.796 111.676 162.877C114.541 160.92 117.233 158.919 119.222 157.17C120.217 156.295 121.025 155.493 121.589 154.799C122.17 154.084 122.428 153.559 122.452 153.228C122.518 152.333 122.32 151.158 121.94 149.869C121.562 148.59 121.015 147.235 120.413 145.997C119.811 144.758 119.16 143.65 118.58 142.86C118.289 142.463 118.026 142.161 117.806 141.963C117.696 141.864 117.608 141.802 117.543 141.766C117.504 141.745 117.483 141.738 117.476 141.736C117.323 141.738 116.849 141.786 116.077 141.879C115.307 141.973 114.278 142.106 113.069 142.268C111.049 142.538 108.531 142.885 105.882 143.25C105.36 143.322 104.833 143.395 104.304 143.468C97.8891 144.351 91.1113 145.276 89.0754 145.417C88.7212 145.441 88.3516 145.357 87.985 145.217C87.6151 145.076 87.2177 144.866 86.7978 144.606C85.9593 144.088 84.9792 143.341 83.8771 142.457C83.2734 141.972 82.6307 141.444 81.9493 140.885C80.1262 139.388 78.026 137.663 75.6531 135.928C69.1378 131.165 60.6899 126.424 50.7876 126.424C50.5616 126.424 50.3355 126.424 50.1093 126.423Z" fill="#00519D"/>
<path d="M103.681 168.346C93.6146 166.67 85.3008 169.048 82.7123 170.91C85.3008 171.748 90.6234 173.206 94.765 172.536C98.9066 171.865 101.38 170.301 103.681 168.346Z" fill="#00519D"/>
<path d="M10.2345 181.525C13.4558 171.469 11.5767 164.113 10.2345 161.692C9.75517 162.996 8.73895 166.441 8.50886 169.793C8.27877 173.145 9.56343 179.011 10.2345 181.525Z" fill="#00519D"/>
<path d="M18.5752 152.754C14.6637 169.067 15.6032 193.443 16.5619 203.592L18.5753 204.15C16.7346 175.771 17.8082 158.061 18.5752 152.754Z" fill="#00519D"/>
<path d="M64.0177 161.134C67.2389 164.262 75.1386 168.21 78.6858 169.793V173.704C75.4646 172.586 67.5649 164.858 64.0177 161.134Z" fill="#00519D"/>
<path d="M47.9115 122.028H44.1725C43.5014 121.655 41.469 119.346 38.7079 113.089C35.9469 106.832 39.0914 103.406 41.0088 102.475C46.4734 93.2572 61.4292 95.7711 62.0044 98.5644C62.5796 101.358 59.9911 103.592 57.115 104.71C54.2389 105.827 53.3761 109.458 52.8008 111.693C52.2256 113.927 52.5132 113.089 51.0752 111.693C49.6371 110.296 47.3362 110.296 46.761 112.531C46.3009 114.318 48.4867 114.765 49.6371 114.765L47.9115 122.028Z" fill="#00519D"/>
<path opacity="0.2" d="M152.6 74.6H114.2C111.549 74.6 109.4 76.749 109.4 79.4V108.2C109.4 110.851 111.549 113 114.2 113H152.6C155.251 113 157.4 110.851 157.4 108.2V79.4C157.4 76.749 155.251 74.6 152.6 74.6Z" fill="#00519D"/>
<path fill-rule="evenodd" clip-rule="evenodd" d="M149.4 69.8H104.6C104.176 69.8 103.769 69.9686 103.469 70.2686C103.169 70.5687 103 70.9757 103 71.4V106.6C103 107.024 103.169 107.431 103.469 107.731C103.769 108.031 104.176 108.2 104.6 108.2H149.4C149.824 108.2 150.231 108.031 150.531 107.731C150.831 107.431 151 107.024 151 106.6V71.4C151 70.9757 150.831 70.5687 150.531 70.2686C150.231 69.9686 149.824 69.8 149.4 69.8ZM106.2 105V73H147.8V105H106.2Z" fill="#00519D"/>
<path fill-rule="evenodd" clip-rule="evenodd" d="M150.436 72.616L127.892 91.816C127.602 92.0634 127.233 92.1991 126.852 92.1985C126.471 92.1979 126.102 92.0611 125.812 91.8128L103.553 72.6128C103.305 72.3996 103.129 72.1156 103.047 71.799C102.966 71.4825 102.983 71.1485 103.097 70.8421C103.211 70.5358 103.416 70.2716 103.685 70.0853C103.954 69.899 104.273 69.7994 104.6 69.8H149.4C149.726 69.8006 150.045 69.9013 150.313 70.0885C150.581 70.2757 150.785 70.5405 150.898 70.8472C151.011 71.1539 151.027 71.4878 150.945 71.804C150.862 72.1202 150.685 72.4036 150.436 72.616ZM145.054 73H108.904L126.862 88.4912L145.054 73Z" fill="#00519D"/>
<path d="M57.1784 253V238.361H58.8642C59.2581 238.361 59.503 238.548 59.5991 238.923L59.8008 240.32C60.3387 239.677 60.9343 239.153 61.5875 238.75C62.2503 238.337 63.0236 238.13 63.9073 238.13C64.8775 238.13 65.6652 238.399 66.2704 238.937C66.8755 239.465 67.3174 240.186 67.596 241.098C67.8073 240.58 68.0811 240.133 68.4173 239.758C68.7535 239.384 69.1281 239.076 69.5412 238.836C69.9542 238.596 70.3913 238.418 70.8524 238.303C71.3231 238.188 71.7985 238.13 72.2788 238.13C73.0569 238.13 73.7485 238.255 74.3537 238.505C74.9685 238.745 75.4872 239.1 75.9099 239.571C76.3325 240.042 76.6543 240.623 76.8753 241.314C77.0962 242.006 77.2067 242.794 77.2067 243.678V253H74.3825V243.678C74.3825 242.582 74.1424 241.756 73.6621 241.199C73.1914 240.642 72.4998 240.363 71.5872 240.363C71.1838 240.363 70.7995 240.436 70.4345 240.58C70.0695 240.714 69.7477 240.921 69.4691 241.199C69.2002 241.478 68.984 241.824 68.8207 242.237C68.667 242.65 68.5902 243.13 68.5902 243.678V253H65.7661V243.678C65.7661 242.544 65.5403 241.708 65.0888 241.17C64.6374 240.632 63.9746 240.363 63.1004 240.363C62.4953 240.363 61.9333 240.522 61.4146 240.839C60.8959 241.156 60.4204 241.588 59.9881 242.136V253H57.1784ZM90.6838 244.052C90.6838 243.495 90.6022 242.981 90.4389 242.51C90.2852 242.04 90.0547 241.631 89.7473 241.286C89.4399 240.94 89.0652 240.671 88.6234 240.479C88.1815 240.287 87.6724 240.191 87.096 240.191C85.9145 240.191 84.9828 240.532 84.3007 241.214C83.6283 241.896 83.2009 242.842 83.0184 244.052H90.6838ZM93.0037 250.911C92.6578 251.314 92.2592 251.665 91.8077 251.963C91.3562 252.251 90.876 252.486 90.3668 252.669C89.8577 252.851 89.3294 252.986 88.7819 253.072C88.2439 253.159 87.7108 253.202 87.1825 253.202C86.1739 253.202 85.2373 253.034 84.3728 252.697C83.5179 252.352 82.7734 251.852 82.1394 251.199C81.515 250.536 81.0251 249.72 80.6697 248.749C80.3239 247.77 80.151 246.646 80.151 245.378C80.151 244.36 80.3095 243.413 80.6265 242.539C80.9435 241.655 81.395 240.887 81.9809 240.234C82.5765 239.581 83.3017 239.067 84.1566 238.692C85.0116 238.317 85.9722 238.13 87.0384 238.13C87.9318 238.13 88.7531 238.279 89.5023 238.577C90.2612 238.865 90.9144 239.288 91.4619 239.845C92.0094 240.402 92.4369 241.089 92.7443 241.905C93.0613 242.722 93.2198 243.654 93.2198 244.701C93.2198 245.133 93.1718 245.426 93.0757 245.579C92.9796 245.724 92.8019 245.796 92.5426 245.796H82.9463C82.9751 246.67 83.1 247.433 83.3209 248.087C83.5419 248.73 83.8445 249.268 84.2287 249.7C84.6225 250.133 85.0884 250.454 85.6263 250.666C86.1643 250.877 86.7646 250.983 87.4274 250.983C88.0518 250.983 88.5898 250.911 89.0412 250.767C89.5023 250.623 89.8962 250.469 90.2228 250.306C90.559 250.133 90.8375 249.974 91.0585 249.83C91.289 249.686 91.4907 249.614 91.6636 249.614C91.8942 249.614 92.0719 249.7 92.1968 249.873L93.0037 250.911ZM99.1215 231.733V253H96.2974V231.733H99.1215ZM105.944 240.219C106.559 239.595 107.236 239.091 107.976 238.706C108.725 238.322 109.585 238.13 110.555 238.13C111.362 238.13 112.068 238.265 112.673 238.534C113.288 238.803 113.802 239.182 114.215 239.672C114.628 240.152 114.94 240.733 115.152 241.415C115.363 242.097 115.469 242.851 115.469 243.678V253H112.644V243.678C112.644 242.63 112.404 241.819 111.924 241.242C111.444 240.656 110.709 240.363 109.719 240.363C108.999 240.363 108.322 240.536 107.688 240.882C107.063 241.218 106.482 241.68 105.944 242.265V253H103.135V231.733H105.944V240.219ZM125.499 238.13C126.575 238.13 127.545 238.308 128.41 238.663C129.284 239.009 130.023 239.513 130.629 240.176C131.243 240.829 131.714 241.622 132.041 242.554C132.367 243.476 132.531 244.513 132.531 245.666C132.531 246.819 132.367 247.861 132.041 248.793C131.714 249.724 131.243 250.517 130.629 251.17C130.023 251.823 129.284 252.328 128.41 252.683C127.545 253.029 126.575 253.202 125.499 253.202C124.414 253.202 123.434 253.029 122.56 252.683C121.695 252.328 120.956 251.823 120.341 251.17C119.726 250.517 119.25 249.724 118.914 248.793C118.588 247.861 118.424 246.819 118.424 245.666C118.424 244.513 118.588 243.476 118.914 242.554C119.25 241.622 119.726 240.829 120.341 240.176C120.956 239.513 121.695 239.009 122.56 238.663C123.434 238.308 124.414 238.13 125.499 238.13ZM125.499 251.012C126.882 251.012 127.915 250.546 128.597 249.614C129.279 248.682 129.62 247.371 129.62 245.68C129.62 243.99 129.279 242.679 128.597 241.747C127.915 240.805 126.882 240.335 125.499 240.335C124.097 240.335 123.05 240.805 122.358 241.747C121.676 242.679 121.335 243.99 121.335 245.68C121.335 247.371 121.676 248.682 122.358 249.614C123.05 250.546 124.097 251.012 125.499 251.012ZM138.318 241.17C138.789 240.21 139.356 239.456 140.018 238.908C140.681 238.361 141.479 238.087 142.41 238.087C142.727 238.087 143.025 238.125 143.304 238.202C143.592 238.269 143.842 238.375 144.053 238.519L143.866 240.637C143.798 240.897 143.64 241.026 143.39 241.026C143.256 241.026 143.054 241.002 142.785 240.954C142.516 240.897 142.228 240.868 141.92 240.868C141.469 240.868 141.07 240.935 140.724 241.07C140.379 241.194 140.066 241.387 139.788 241.646C139.519 241.896 139.279 242.208 139.067 242.582C138.856 242.947 138.659 243.365 138.477 243.836V253H135.667V238.361H137.281C137.588 238.361 137.795 238.418 137.9 238.534C138.016 238.639 138.097 238.831 138.145 239.11L138.318 241.17Z" fill="#00519D"/>
<path d="M62.6826 259.974L56.7461 274.613H54.2102L48.2738 259.974H50.5936C50.8145 259.974 50.997 260.027 51.1411 260.132C51.2852 260.238 51.3813 260.373 51.4293 260.536L54.9306 269.527C55.0555 269.902 55.1612 270.276 55.2476 270.651C55.3437 271.016 55.4301 271.381 55.507 271.746C55.5838 271.381 55.6703 271.016 55.7663 270.651C55.8624 270.286 55.9777 269.911 56.1122 269.527L59.6567 260.536C59.7144 260.373 59.8152 260.238 59.9593 260.132C60.1034 260.027 60.2763 259.974 60.478 259.974H62.6826ZM70.7344 259.743C71.8103 259.743 72.7804 259.921 73.645 260.276C74.5191 260.622 75.2588 261.127 75.8639 261.789C76.4787 262.443 76.9494 263.235 77.276 264.167C77.6026 265.089 77.7659 266.126 77.7659 267.279C77.7659 268.432 77.6026 269.474 77.276 270.406C76.9494 271.338 76.4787 272.13 75.8639 272.783C75.2588 273.437 74.5191 273.941 73.645 274.296C72.7804 274.642 71.8103 274.815 70.7344 274.815C69.6489 274.815 68.6691 274.642 67.795 274.296C66.9305 273.941 66.1908 273.437 65.576 272.783C64.9613 272.13 64.4858 271.338 64.1496 270.406C63.823 269.474 63.6597 268.432 63.6597 267.279C63.6597 266.126 63.823 265.089 64.1496 264.167C64.4858 263.235 64.9613 262.443 65.576 261.789C66.1908 261.127 66.9305 260.622 67.795 260.276C68.6691 259.921 69.6489 259.743 70.7344 259.743ZM70.7344 272.625C72.1176 272.625 73.1503 272.159 73.8323 271.227C74.5143 270.295 74.8553 268.984 74.8553 267.294C74.8553 265.603 74.5143 264.292 73.8323 263.36C73.1503 262.419 72.1176 261.948 70.7344 261.948C69.3319 261.948 68.2849 262.419 67.5933 263.36C66.9113 264.292 66.5702 265.603 66.5702 267.294C66.5702 268.984 66.9113 270.295 67.5933 271.227C68.2849 272.159 69.3319 272.625 70.7344 272.625ZM93.0777 259.974V274.613H91.3919C91.0077 274.613 90.7579 274.426 90.6426 274.051L90.4409 272.582C90.1239 272.918 89.7925 273.225 89.4467 273.504C89.1009 273.782 88.7311 274.022 88.3372 274.224C87.9434 274.416 87.5255 274.565 87.0837 274.671C86.6418 274.786 86.1663 274.844 85.6572 274.844C84.8503 274.844 84.1395 274.709 83.5247 274.44C82.9195 274.171 82.4104 273.797 81.9973 273.316C81.5843 272.827 81.2721 272.241 81.0608 271.559C80.8494 270.877 80.7438 270.122 80.7438 269.296V259.974H83.5679V269.296C83.5679 270.343 83.8081 271.16 84.2883 271.746C84.7686 272.322 85.5035 272.61 86.4929 272.61C87.2133 272.61 87.8857 272.442 88.5101 272.106C89.1345 271.76 89.7205 271.29 90.268 270.694V259.974H93.0777ZM107.259 262.712C107.172 262.817 107.086 262.904 106.999 262.971C106.922 263.029 106.807 263.057 106.654 263.057C106.5 263.057 106.337 263 106.164 262.884C106 262.76 105.789 262.63 105.53 262.495C105.28 262.351 104.972 262.222 104.607 262.106C104.252 261.982 103.81 261.919 103.282 261.919C102.59 261.919 101.98 262.044 101.452 262.294C100.924 262.543 100.482 262.899 100.126 263.36C99.7805 263.821 99.5164 264.383 99.3338 265.046C99.1513 265.709 99.0601 266.453 99.0601 267.279C99.0601 268.134 99.1561 268.898 99.3483 269.57C99.5404 270.233 99.8141 270.795 100.17 271.256C100.525 271.707 100.957 272.053 101.466 272.293C101.975 272.524 102.542 272.639 103.167 272.639C103.772 272.639 104.271 272.567 104.665 272.423C105.059 272.269 105.386 272.106 105.645 271.933C105.904 271.76 106.12 271.602 106.293 271.458C106.466 271.304 106.644 271.227 106.826 271.227C107.057 271.227 107.235 271.314 107.36 271.487L108.166 272.524C107.83 272.937 107.451 273.288 107.028 273.576C106.615 273.864 106.173 274.099 105.703 274.282C105.232 274.464 104.737 274.599 104.218 274.685C103.709 274.772 103.191 274.815 102.662 274.815C101.75 274.815 100.895 274.647 100.098 274.311C99.3098 273.974 98.623 273.485 98.0371 272.841C97.4607 272.197 97.0044 271.41 96.6682 270.478C96.332 269.537 96.1639 268.47 96.1639 267.279C96.1639 266.194 96.3128 265.19 96.6106 264.268C96.918 263.346 97.3646 262.553 97.9506 261.89C98.5462 261.218 99.2762 260.694 100.141 260.32C101.005 259.935 101.995 259.743 103.109 259.743C104.156 259.743 105.078 259.911 105.875 260.248C106.673 260.584 107.384 261.059 108.008 261.674L107.259 262.712ZM113.599 261.833C114.214 261.208 114.891 260.704 115.631 260.32C116.38 259.935 117.24 259.743 118.21 259.743C119.017 259.743 119.723 259.878 120.328 260.147C120.943 260.416 121.457 260.795 121.87 261.285C122.283 261.765 122.595 262.347 122.806 263.029C123.018 263.711 123.123 264.465 123.123 265.291V274.613H120.299V265.291C120.299 264.244 120.059 263.432 119.579 262.856C119.098 262.27 118.364 261.977 117.374 261.977C116.654 261.977 115.976 262.15 115.342 262.495C114.718 262.832 114.137 263.293 113.599 263.879V274.613H110.789V253.346H113.599V261.833ZM136.612 265.665C136.612 265.108 136.53 264.594 136.367 264.124C136.213 263.653 135.983 263.245 135.675 262.899C135.368 262.553 134.993 262.284 134.551 262.092C134.11 261.9 133.6 261.804 133.024 261.804C131.843 261.804 130.911 262.145 130.229 262.827C129.556 263.509 129.129 264.455 128.946 265.665H136.612ZM138.932 272.524C138.586 272.927 138.187 273.278 137.736 273.576C137.284 273.864 136.804 274.099 136.295 274.282C135.786 274.464 135.257 274.599 134.71 274.685C134.172 274.772 133.639 274.815 133.111 274.815C132.102 274.815 131.165 274.647 130.301 274.311C129.446 273.965 128.701 273.465 128.067 272.812C127.443 272.149 126.953 271.333 126.598 270.363C126.252 269.383 126.079 268.259 126.079 266.991C126.079 265.973 126.238 265.027 126.555 264.152C126.872 263.269 127.323 262.5 127.909 261.847C128.505 261.194 129.23 260.68 130.085 260.305C130.94 259.931 131.9 259.743 132.966 259.743C133.86 259.743 134.681 259.892 135.43 260.19C136.189 260.478 136.842 260.901 137.39 261.458C137.938 262.015 138.365 262.702 138.672 263.518C138.989 264.335 139.148 265.267 139.148 266.314C139.148 266.746 139.1 267.039 139.004 267.193C138.908 267.337 138.73 267.409 138.471 267.409H128.874C128.903 268.283 129.028 269.047 129.249 269.7C129.47 270.343 129.773 270.881 130.157 271.314C130.551 271.746 131.016 272.068 131.554 272.279C132.092 272.49 132.693 272.596 133.356 272.596C133.98 272.596 134.518 272.524 134.969 272.38C135.43 272.236 135.824 272.082 136.151 271.919C136.487 271.746 136.766 271.587 136.987 271.443C137.217 271.299 137.419 271.227 137.592 271.227C137.822 271.227 138 271.314 138.125 271.487L138.932 272.524ZM144.819 262.784C145.29 261.823 145.856 261.069 146.519 260.521C147.182 259.974 147.979 259.7 148.911 259.7C149.228 259.7 149.526 259.739 149.805 259.815C150.093 259.883 150.342 259.988 150.554 260.132L150.366 262.25C150.299 262.51 150.141 262.64 149.891 262.64C149.756 262.64 149.555 262.615 149.286 262.567C149.017 262.51 148.729 262.481 148.421 262.481C147.97 262.481 147.571 262.548 147.225 262.683C146.88 262.808 146.567 263 146.289 263.259C146.02 263.509 145.78 263.821 145.568 264.196C145.357 264.561 145.16 264.979 144.978 265.449V274.613H142.168V259.974H143.782C144.089 259.974 144.296 260.032 144.401 260.147C144.516 260.252 144.598 260.445 144.646 260.723L144.819 262.784Z" fill="#00519D"/>
<path d="M158.46 270.783L160.409 252.59H173.404L175.354 270.133L166.907 264.935L158.46 270.783Z" fill="#D9D9D9"/>
<path d="M158.46 270.783L160.409 252.59H173.404L175.354 270.133L166.907 264.935L158.46 270.783Z" stroke="black"/>
<circle cx="166.257" cy="243.493" r="11.6958" fill="#D9D9D9"/>
<path d="M162.358 256.488C168.818 256.488 174.054 251.252 174.054 244.792C174.054 238.333 168.818 233.097 162.358 233.097C155.899 233.097 150.663 238.333 150.663 244.792C150.663 251.252 155.899 256.488 162.358 256.488Z" stroke="#00519D" stroke-width="2.59906" stroke-linecap="round" stroke-linejoin="round"/>
<path d="M162.358 256.488C168.818 256.488 174.054 251.252 174.054 244.792C174.054 238.333 168.818 233.097 162.358 233.097C155.899 233.097 150.663 238.333 150.663 244.792C150.663 251.252 155.899 256.488 162.358 256.488Z" stroke="#00519D" stroke-width="2.59906" stroke-linecap="round" stroke-linejoin="round"/>
<path d="M156.605 255.207L154.561 272.083L163.008 266.525L171.455 272.083L169.411 255.189" stroke="#00519D" stroke-width="2.59906" stroke-linecap="round" stroke-linejoin="round"/>
<path d="M162.358 256.488C168.818 256.488 174.054 251.252 174.054 244.792C174.054 238.333 168.818 233.097 162.358 233.097C155.899 233.097 150.663 238.333 150.663 244.792C150.663 251.252 155.899 256.488 162.358 256.488Z" stroke="#00519D" stroke-width="2.59906" stroke-linecap="round" stroke-linejoin="round"/>
</svg>
