<svg width="66" height="30" viewBox="0 0 66 30" fill="none" xmlns="http://www.w3.org/2000/svg">
<path d="M4.66151 15V7.56502H5.5177C5.71773 7.56502 5.84213 7.66015 5.89092 7.85042L5.99337 8.56025C6.26657 8.23339 6.56904 7.9675 6.90079 7.7626C7.23741 7.55282 7.63014 7.44793 8.07897 7.44793C8.5717 7.44793 8.97175 7.58453 9.2791 7.85774C9.58645 8.12606 9.81087 8.49195 9.95235 8.95542C10.0597 8.69198 10.1987 8.46512 10.3695 8.27486C10.5402 8.08459 10.7305 7.92848 10.9403 7.80651C11.15 7.68455 11.372 7.59429 11.6062 7.53575C11.8452 7.47721 12.0867 7.44793 12.3307 7.44793C12.7258 7.44793 13.0771 7.51136 13.3844 7.6382C13.6967 7.76016 13.9601 7.94067 14.1748 8.17972C14.3894 8.41877 14.5529 8.71393 14.6651 9.06519C14.7773 9.41645 14.8334 9.81649 14.8334 10.2653V15H13.3991V10.2653C13.3991 9.70916 13.2771 9.2896 13.0332 9.00665C12.7941 8.72369 12.4429 8.58221 11.9794 8.58221C11.7745 8.58221 11.5794 8.6188 11.394 8.69198C11.2086 8.76028 11.0452 8.86517 10.9037 9.00665C10.7671 9.14812 10.6573 9.32375 10.5744 9.53353C10.4963 9.74331 10.4573 9.98724 10.4573 10.2653V15H9.02297V10.2653C9.02297 9.68965 8.90833 9.26521 8.67903 8.99201C8.44974 8.71881 8.11312 8.58221 7.66916 8.58221C7.36181 8.58221 7.07641 8.6627 6.81297 8.8237C6.54953 8.98469 6.30804 9.20423 6.0885 9.48231V15H4.66151ZM21.6781 10.4556C21.6781 10.1726 21.6367 9.91162 21.5537 9.67257C21.4757 9.43352 21.3586 9.22618 21.2025 9.05055C21.0463 8.87492 20.8561 8.73832 20.6317 8.64075C20.4073 8.54318 20.1487 8.49439 19.856 8.49439C19.2559 8.49439 18.7827 8.66758 18.4363 9.01396C18.0948 9.36034 17.8777 9.84089 17.785 10.4556H21.6781ZM22.8563 13.9389C22.6807 14.1438 22.4782 14.3219 22.2489 14.4731C22.0196 14.6195 21.7757 14.739 21.5171 14.8317C21.2586 14.9244 20.9902 14.9927 20.7122 15.0366C20.439 15.0805 20.1682 15.1025 19.8999 15.1025C19.3876 15.1025 18.912 15.0171 18.4729 14.8463C18.0387 14.6707 17.6606 14.417 17.3386 14.0853C17.0215 13.7486 16.7727 13.334 16.5922 12.8412C16.4166 12.3436 16.3287 11.7728 16.3287 11.1288C16.3287 10.6117 16.4092 10.1312 16.5702 9.68721C16.7312 9.23838 16.9605 8.84809 17.2581 8.51635C17.5606 8.1846 17.9289 7.9236 18.3631 7.73333C18.7973 7.54307 19.2852 7.44793 19.8267 7.44793C20.2804 7.44793 20.6975 7.52355 21.0781 7.67479C21.4635 7.82115 21.7952 8.0358 22.0733 8.31876C22.3514 8.60172 22.5685 8.95054 22.7246 9.36522C22.8856 9.7799 22.9661 10.2531 22.9661 10.7849C22.9661 11.0044 22.9417 11.1532 22.8929 11.2313C22.8441 11.3045 22.7539 11.3411 22.6221 11.3411H17.7484C17.7631 11.785 17.8265 12.1729 17.9387 12.5046C18.0509 12.8315 18.2046 13.1047 18.3997 13.3242C18.5997 13.5437 18.8363 13.7072 19.1095 13.8145C19.3827 13.9218 19.6877 13.9755 20.0243 13.9755C20.3414 13.9755 20.6146 13.9389 20.8439 13.8657C21.0781 13.7925 21.2781 13.7145 21.444 13.6316C21.6147 13.5437 21.7562 13.4632 21.8684 13.3901C21.9855 13.3169 22.0879 13.2803 22.1757 13.2803C22.2928 13.2803 22.3831 13.3242 22.4465 13.412L22.8563 13.9389ZM25.9634 4.19879V15H24.5291V4.19879H25.9634ZM29.4286 8.50903C29.7408 8.19192 30.0847 7.93579 30.4604 7.74065C30.8409 7.54551 31.2776 7.44793 31.7703 7.44793C32.1801 7.44793 32.5387 7.51623 32.846 7.65283C33.1583 7.78944 33.4193 7.98214 33.629 8.23095C33.8388 8.47488 33.9974 8.77003 34.1047 9.11641C34.212 9.46279 34.2657 9.84576 34.2657 10.2653V15H32.8314V10.2653C32.8314 9.73356 32.7094 9.32131 32.4655 9.0286C32.2216 8.731 31.8484 8.58221 31.3459 8.58221C30.98 8.58221 30.636 8.67002 30.314 8.84565C29.9969 9.0164 29.7018 9.25057 29.4286 9.54817V15H28.0016V4.19879H29.4286V8.50903ZM39.36 7.44793C39.9064 7.44793 40.3991 7.53819 40.8382 7.7187C41.2822 7.89433 41.6578 8.15045 41.9652 8.48707C42.2774 8.81882 42.5164 9.2213 42.6823 9.69453C42.8482 10.1629 42.9311 10.6898 42.9311 11.2752C42.9311 11.8606 42.8482 12.39 42.6823 12.8632C42.5164 13.3364 42.2774 13.7389 41.9652 14.0706C41.6578 14.4024 41.2822 14.6585 40.8382 14.839C40.3991 15.0146 39.9064 15.1025 39.36 15.1025C38.8087 15.1025 38.3111 15.0146 37.8671 14.839C37.4281 14.6585 37.0524 14.4024 36.7402 14.0706C36.428 13.7389 36.1865 13.3364 36.0157 12.8632C35.8498 12.39 35.7669 11.8606 35.7669 11.2752C35.7669 10.6898 35.8498 10.1629 36.0157 9.69453C36.1865 9.2213 36.428 8.81882 36.7402 8.48707C37.0524 8.15045 37.4281 7.89433 37.8671 7.7187C38.3111 7.53819 38.8087 7.44793 39.36 7.44793ZM39.36 13.9901C40.0625 13.9901 40.587 13.7535 40.9333 13.2803C41.2797 12.8071 41.4529 12.1411 41.4529 11.2825C41.4529 10.4239 41.2797 9.75795 40.9333 9.28473C40.587 8.80662 40.0625 8.56757 39.36 8.56757C38.6477 8.56757 38.1159 8.80662 37.7647 9.28473C37.4183 9.75795 37.2451 10.4239 37.2451 11.2825C37.2451 12.1411 37.4183 12.8071 37.7647 13.2803C38.1159 13.7535 38.6477 13.9901 39.36 13.9901ZM45.8705 8.99201C46.1096 8.50415 46.3974 8.12118 46.734 7.8431C47.0706 7.56502 47.4756 7.42598 47.9488 7.42598C48.1098 7.42598 48.261 7.44549 48.4025 7.48452C48.5489 7.51867 48.6757 7.57234 48.783 7.64552L48.6879 8.72125C48.6537 8.85297 48.5733 8.91883 48.4464 8.91883C48.3781 8.91883 48.2757 8.90663 48.1391 8.88224C48.0025 8.85297 47.8561 8.83833 47.7 8.83833C47.4707 8.83833 47.2682 8.87248 47.0926 8.94078C46.917 9.00421 46.7584 9.10178 46.6169 9.2335C46.4803 9.36034 46.3584 9.5189 46.251 9.70916C46.1437 9.89455 46.0437 10.1068 45.951 10.3458V15H44.524V7.56502H45.3436C45.4997 7.56502 45.6046 7.59429 45.6583 7.65283C45.7168 7.7065 45.7583 7.80407 45.7827 7.94555L45.8705 8.99201Z" fill="#00519D"/>
<path d="M7.45693 18.5419L4.44196 25.9768H3.15401L0.13904 18.5419H1.31722C1.42943 18.5419 1.52212 18.5687 1.5953 18.6224C1.66848 18.676 1.71727 18.7443 1.74166 18.8273L3.51991 23.3936C3.58333 23.5839 3.63699 23.7742 3.6809 23.9644C3.72969 24.1498 3.77359 24.3352 3.81262 24.5206C3.85165 24.3352 3.89556 24.1498 3.94434 23.9644C3.99313 23.779 4.05167 23.5888 4.11997 23.3936L5.92018 18.8273C5.94945 18.7443 6.00067 18.676 6.07385 18.6224C6.14703 18.5687 6.23485 18.5419 6.3373 18.5419H7.45693ZM11.5463 18.4248C12.0927 18.4248 12.5854 18.515 13.0245 18.6955C13.4684 18.8712 13.8441 19.1273 14.1514 19.4639C14.4637 19.7957 14.7027 20.1981 14.8686 20.6714C15.0345 21.1397 15.1174 21.6666 15.1174 22.252C15.1174 22.8375 15.0345 23.3668 14.8686 23.84C14.7027 24.3132 14.4637 24.7157 14.1514 25.0475C13.8441 25.3792 13.4684 25.6353 13.0245 25.8158C12.5854 25.9915 12.0927 26.0793 11.5463 26.0793C10.995 26.0793 10.4974 25.9915 10.0534 25.8158C9.61434 25.6353 9.23869 25.3792 8.92646 25.0475C8.61423 24.7157 8.37274 24.3132 8.20199 23.84C8.03611 23.3668 7.95318 22.8375 7.95318 22.252C7.95318 21.6666 8.03611 21.1397 8.20199 20.6714C8.37274 20.1981 8.61423 19.7957 8.92646 19.4639C9.23869 19.1273 9.61434 18.8712 10.0534 18.6955C10.4974 18.515 10.995 18.4248 11.5463 18.4248ZM11.5463 24.967C12.2488 24.967 12.7732 24.7304 13.1196 24.2571C13.466 23.7839 13.6392 23.118 13.6392 22.2593C13.6392 21.4007 13.466 20.7348 13.1196 20.2616C12.7732 19.7835 12.2488 19.5444 11.5463 19.5444C10.834 19.5444 10.3022 19.7835 9.95096 20.2616C9.60458 20.7348 9.43139 21.4007 9.43139 22.2593C9.43139 23.118 9.60458 23.7839 9.95096 24.2571C10.3022 24.7304 10.834 24.967 11.5463 24.967ZM22.8939 18.5419V25.9768H22.0377C21.8426 25.9768 21.7157 25.8817 21.6572 25.6914L21.5547 24.945C21.3937 25.1158 21.2254 25.2719 21.0498 25.4134C20.8742 25.5548 20.6863 25.6768 20.4863 25.7793C20.2863 25.8768 20.0741 25.9524 19.8497 26.0061C19.6253 26.0647 19.3838 26.0939 19.1252 26.0939C18.7154 26.0939 18.3544 26.0256 18.0422 25.889C17.7348 25.7524 17.4762 25.5622 17.2665 25.3182C17.0567 25.0694 16.8981 24.7718 16.7908 24.4254C16.6835 24.0791 16.6298 23.6961 16.6298 23.2765V18.5419H18.0641V23.2765C18.0641 23.8083 18.1861 24.223 18.43 24.5206C18.6739 24.8133 19.0471 24.9596 19.5496 24.9596C19.9155 24.9596 20.257 24.8743 20.5741 24.7035C20.8913 24.5279 21.1888 24.2888 21.4669 23.9864V18.5419H22.8939ZM30.0961 19.9323C30.0522 19.9859 30.0083 20.0298 29.9644 20.064C29.9253 20.0933 29.8668 20.1079 29.7887 20.1079C29.7107 20.1079 29.6277 20.0786 29.5399 20.0201C29.457 19.9567 29.3497 19.8908 29.2179 19.8225C29.0911 19.7493 28.935 19.6834 28.7496 19.6249C28.5691 19.5615 28.3447 19.5298 28.0764 19.5298C27.7251 19.5298 27.4153 19.5932 27.147 19.72C26.8787 19.8469 26.6542 20.0274 26.4737 20.2616C26.2981 20.4957 26.1639 20.7811 26.0713 21.1178C25.9786 21.4544 25.9322 21.8325 25.9322 22.252C25.9322 22.6862 25.981 23.0741 26.0786 23.4156C26.1761 23.7522 26.3152 24.0376 26.4957 24.2718C26.6762 24.5011 26.8957 24.6767 27.1543 24.7987C27.4129 24.9157 27.7007 24.9743 28.0178 24.9743C28.3252 24.9743 28.5788 24.9377 28.7789 24.8645C28.9789 24.7865 29.1448 24.7035 29.2765 24.6157C29.4082 24.5279 29.518 24.4474 29.6058 24.3742C29.6936 24.2962 29.7839 24.2571 29.8766 24.2571C29.9936 24.2571 30.0839 24.301 30.1473 24.3889L30.5571 24.9157C30.3864 25.1255 30.1937 25.3036 29.979 25.4499C29.7692 25.5963 29.5448 25.7158 29.3058 25.8085C29.0667 25.9012 28.8155 25.9695 28.552 26.0134C28.2935 26.0573 28.03 26.0793 27.7617 26.0793C27.2982 26.0793 26.864 25.9939 26.4591 25.8232C26.0591 25.6524 25.7102 25.4036 25.4126 25.0767C25.1199 24.7499 24.8882 24.3498 24.7174 23.8766C24.5467 23.3985 24.4613 22.857 24.4613 22.252C24.4613 21.7007 24.5369 21.1909 24.6882 20.7226C24.8443 20.2542 25.0711 19.8518 25.3687 19.5151C25.6712 19.1736 26.042 18.9078 26.4811 18.7175C26.9201 18.5223 27.4226 18.4248 27.9885 18.4248C28.5203 18.4248 28.9887 18.5101 29.3936 18.6809C29.7985 18.8516 30.1595 19.0931 30.4766 19.4054L30.0961 19.9323ZM33.3162 19.4859C33.6284 19.1688 33.9724 18.9126 34.348 18.7175C34.7285 18.5223 35.1652 18.4248 35.6579 18.4248C36.0677 18.4248 36.4263 18.4931 36.7337 18.6297C37.0459 18.7663 37.3069 18.959 37.5167 19.2078C37.7264 19.4517 37.885 19.7469 37.9923 20.0933C38.0997 20.4396 38.1533 20.8226 38.1533 21.2422V25.9768H36.719V21.2422C36.719 20.7104 36.5971 20.2982 36.3531 20.0054C36.1092 19.7078 35.736 19.559 35.2335 19.559C34.8676 19.559 34.5236 19.6469 34.2017 19.8225C33.8846 19.9932 33.5894 20.2274 33.3162 20.525V25.9768H31.8892V15.1756H33.3162V19.4859ZM45.0039 21.4324C45.0039 21.1495 44.9624 20.8885 44.8795 20.6494C44.8014 20.4104 44.6844 20.203 44.5282 20.0274C44.3721 19.8518 44.1819 19.7152 43.9574 19.6176C43.733 19.52 43.4745 19.4712 43.1817 19.4712C42.5817 19.4712 42.1085 19.6444 41.7621 19.9908C41.4206 20.3372 41.2035 20.8177 41.1108 21.4324H45.0039ZM46.1821 24.9157C46.0064 25.1206 45.804 25.2987 45.5747 25.4499C45.3454 25.5963 45.1015 25.7158 44.8429 25.8085C44.5843 25.9012 44.316 25.9695 44.0379 26.0134C43.7647 26.0573 43.494 26.0793 43.2257 26.0793C42.7134 26.0793 42.2377 25.9939 41.7987 25.8232C41.3645 25.6475 40.9864 25.3938 40.6644 25.0621C40.3473 24.7255 40.0985 24.3108 39.918 23.8181C39.7423 23.3204 39.6545 22.7496 39.6545 22.1057C39.6545 21.5885 39.735 21.108 39.896 20.664C40.057 20.2152 40.2863 19.8249 40.5839 19.4932C40.8864 19.1614 41.2547 18.9004 41.6889 18.7102C42.1231 18.5199 42.6109 18.4248 43.1525 18.4248C43.6062 18.4248 44.0233 18.5004 44.4038 18.6516C44.7892 18.798 45.121 19.0126 45.3991 19.2956C45.6771 19.5786 45.8942 19.9274 46.0504 20.3421C46.2114 20.7567 46.2918 21.23 46.2918 21.7617C46.2918 21.9813 46.2675 22.1301 46.2187 22.2081C46.1699 22.2813 46.0796 22.3179 45.9479 22.3179H41.0742C41.0888 22.7618 41.1522 23.1497 41.2645 23.4814C41.3767 23.8083 41.5303 24.0815 41.7255 24.301C41.9255 24.5206 42.1621 24.684 42.4353 24.7913C42.7085 24.8987 43.0134 24.9523 43.3501 24.9523C43.6672 24.9523 43.9404 24.9157 44.1697 24.8426C44.4038 24.7694 44.6039 24.6913 44.7697 24.6084C44.9405 24.5206 45.082 24.4401 45.1942 24.3669C45.3112 24.2937 45.4137 24.2571 45.5015 24.2571C45.6186 24.2571 45.7089 24.301 45.7723 24.3889L46.1821 24.9157ZM49.1721 19.9688C49.4112 19.481 49.699 19.098 50.0356 18.8199C50.3723 18.5419 50.7772 18.4028 51.2504 18.4028C51.4114 18.4028 51.5626 18.4223 51.7041 18.4614C51.8505 18.4955 51.9773 18.5492 52.0846 18.6224L51.9895 19.6981C51.9554 19.8298 51.8749 19.8957 51.748 19.8957C51.6797 19.8957 51.5773 19.8835 51.4407 19.8591C51.3041 19.8298 51.1577 19.8152 51.0016 19.8152C50.7723 19.8152 50.5698 19.8493 50.3942 19.9176C50.2186 19.981 50.06 20.0786 49.9186 20.2103C49.782 20.3372 49.66 20.4957 49.5527 20.686C49.4453 20.8714 49.3453 21.0836 49.2526 21.3227V25.9768H47.8256V18.5419H48.6452C48.8014 18.5419 48.9062 18.5711 48.9599 18.6297C49.0185 18.6833 49.0599 18.7809 49.0843 18.9224L49.1721 19.9688Z" fill="#00519D"/>
<path d="M56.1 23.76L57.09 14.52H63.69L64.68 23.43L60.39 20.79L56.1 23.76Z" fill="#D9D9D9"/>
<path d="M56.1 23.76L57.09 14.52H63.69L64.68 23.43L60.39 20.79L56.1 23.76Z" stroke="black"/>
<circle cx="60.06" cy="9.89999" r="5.94" fill="#D9D9D9"/>
<path d="M58.08 16.5C61.3605 16.5 64.02 13.8406 64.02 10.56C64.02 7.27942 61.3605 4.62 58.08 4.62C54.7994 4.62 52.14 7.27942 52.14 10.56C52.14 13.8406 54.7994 16.5 58.08 16.5Z" stroke="#00519D" stroke-width="1.32" stroke-linecap="round" stroke-linejoin="round"/>
<path d="M55.1582 15.8494L54.12 24.42L58.41 21.5976L62.7 24.42L61.6618 15.84" stroke="#00519D" stroke-width="1.32" stroke-linecap="round" stroke-linejoin="round"/>
</svg>
