<svg width="525" height="525" viewBox="0 0 525 525" fill="none" xmlns="http://www.w3.org/2000/svg">
<rect width="525" height="525" rx="150" fill="#00519D"/>
<path d="M81.6339 258V211.532H86.9851C88.2352 211.532 89.0128 212.126 89.3177 213.316L89.958 217.752C91.6655 215.709 93.556 214.047 95.6294 212.767C97.7333 211.456 100.188 210.8 102.993 210.8C106.073 210.8 108.573 211.654 110.494 213.361C112.415 215.038 113.817 217.325 114.702 220.222C115.372 218.575 116.241 217.157 117.309 215.968C118.376 214.779 119.565 213.803 120.876 213.041C122.187 212.279 123.575 211.715 125.038 211.349C126.532 210.983 128.042 210.8 129.566 210.8C132.036 210.8 134.231 211.196 136.152 211.989C138.104 212.751 139.75 213.88 141.092 215.374C142.433 216.868 143.455 218.713 144.156 220.908C144.857 223.103 145.208 225.604 145.208 228.409V258H136.244V228.409C136.244 224.933 135.481 222.31 133.957 220.542C132.463 218.774 130.267 217.889 127.371 217.889C126.09 217.889 124.87 218.118 123.712 218.575C122.553 219.002 121.532 219.658 120.647 220.542C119.794 221.426 119.108 222.524 118.589 223.835C118.101 225.146 117.857 226.671 117.857 228.409V258H108.893V228.409C108.893 224.811 108.177 222.158 106.743 220.451C105.31 218.743 103.206 217.889 100.432 217.889C98.5108 217.889 96.727 218.392 95.0805 219.399C93.434 220.405 91.9247 221.777 90.5526 223.515V258H81.6339ZM187.988 229.598C187.988 227.829 187.729 226.198 187.21 224.704C186.722 223.21 185.991 221.914 185.015 220.816C184.039 219.719 182.85 218.865 181.447 218.255C180.045 217.645 178.429 217.34 176.599 217.34C172.849 217.34 169.891 218.423 167.726 220.588C165.592 222.753 164.235 225.756 163.656 229.598H187.988ZM195.351 251.369C194.254 252.649 192.988 253.762 191.555 254.707C190.122 255.622 188.598 256.369 186.982 256.949C185.366 257.528 183.689 257.955 181.951 258.229C180.243 258.504 178.551 258.641 176.874 258.641C173.672 258.641 170.699 258.107 167.955 257.04C165.241 255.942 162.878 254.357 160.866 252.283C158.884 250.179 157.329 247.588 156.201 244.508C155.103 241.398 154.554 237.831 154.554 233.806C154.554 230.574 155.057 227.57 156.063 224.796C157.07 221.99 158.503 219.551 160.363 217.478C162.253 215.404 164.555 213.773 167.269 212.584C169.983 211.395 173.032 210.8 176.416 210.8C179.252 210.8 181.859 211.273 184.237 212.218C186.646 213.133 188.72 214.474 190.458 216.243C192.196 218.011 193.552 220.191 194.528 222.783C195.534 225.375 196.037 228.333 196.037 231.656C196.037 233.028 195.885 233.958 195.58 234.446C195.275 234.903 194.711 235.132 193.888 235.132H163.427C163.519 237.907 163.915 240.331 164.616 242.404C165.318 244.447 166.278 246.155 167.498 247.527C168.748 248.899 170.227 249.92 171.934 250.591C173.642 251.262 175.547 251.597 177.651 251.597C179.633 251.597 181.341 251.369 182.774 250.911C184.237 250.454 185.488 249.966 186.524 249.448C187.591 248.899 188.476 248.396 189.177 247.938C189.909 247.481 190.549 247.252 191.098 247.252C191.83 247.252 192.394 247.527 192.79 248.076L195.351 251.369ZM214.771 190.493V258H205.807V190.493H214.771ZM236.428 217.432C238.38 215.45 240.529 213.849 242.877 212.63C245.255 211.41 247.984 210.8 251.064 210.8C253.625 210.8 255.866 211.227 257.787 212.081C259.739 212.934 261.37 214.139 262.681 215.694C263.992 217.218 264.983 219.063 265.654 221.228C266.325 223.393 266.66 225.786 266.66 228.409V258H257.696V228.409C257.696 225.085 256.933 222.509 255.409 220.679C253.884 218.819 251.552 217.889 248.411 217.889C246.124 217.889 243.975 218.438 241.962 219.536C239.98 220.603 238.136 222.067 236.428 223.927V258H227.509V190.493H236.428V217.432ZM298.499 210.8C301.914 210.8 304.994 211.364 307.738 212.492C310.513 213.59 312.861 215.191 314.782 217.295C316.733 219.368 318.227 221.884 319.264 224.841C320.301 227.768 320.819 231.061 320.819 234.72C320.819 238.379 320.301 241.688 319.264 244.645C318.227 247.603 316.733 250.119 314.782 252.192C312.861 254.265 310.513 255.866 307.738 256.994C304.994 258.092 301.914 258.641 298.499 258.641C295.054 258.641 291.944 258.092 289.169 256.994C286.425 255.866 284.077 254.265 282.126 252.192C280.174 250.119 278.665 247.603 277.598 244.645C276.561 241.688 276.043 238.379 276.043 234.72C276.043 231.061 276.561 227.768 277.598 224.841C278.665 221.884 280.174 219.368 282.126 217.295C284.077 215.191 286.425 213.59 289.169 212.492C291.944 211.364 295.054 210.8 298.499 210.8ZM298.499 251.689C302.89 251.689 306.168 250.21 308.333 247.252C310.498 244.295 311.58 240.133 311.58 234.766C311.58 229.4 310.498 225.238 308.333 222.28C306.168 219.292 302.89 217.798 298.499 217.798C294.048 217.798 290.724 219.292 288.529 222.28C286.364 225.238 285.282 229.4 285.282 234.766C285.282 240.133 286.364 244.295 288.529 247.252C290.724 250.21 294.048 251.689 298.499 251.689ZM339.19 220.451C340.684 217.401 342.483 215.008 344.587 213.27C346.691 211.532 349.222 210.663 352.18 210.663C353.186 210.663 354.131 210.785 355.015 211.029C355.93 211.242 356.723 211.578 357.394 212.035L356.799 218.758C356.586 219.582 356.082 219.993 355.29 219.993C354.863 219.993 354.222 219.917 353.369 219.764C352.515 219.582 351.6 219.49 350.624 219.49C349.191 219.49 347.926 219.703 346.828 220.13C345.731 220.527 344.74 221.137 343.855 221.96C343.002 222.753 342.239 223.744 341.569 224.933C340.898 226.091 340.273 227.418 339.693 228.912V258H330.775V211.532H335.897C336.873 211.532 337.528 211.715 337.864 212.081C338.23 212.416 338.489 213.026 338.641 213.91L339.19 220.451Z" fill="#D9D9D9"/>
<path d="M99.1059 280.137L80.2623 326.606H72.2126L53.369 280.137H60.7326C61.4339 280.137 62.0133 280.305 62.4706 280.64C62.928 280.976 63.2329 281.402 63.3854 281.921L74.4994 310.461C74.8958 311.65 75.2312 312.839 75.5056 314.028C75.8106 315.187 76.085 316.345 76.3289 317.504C76.5728 316.345 76.8473 315.187 77.1522 314.028C77.4571 312.869 77.823 311.68 78.2499 310.461L89.5011 281.921C89.6841 281.402 90.0042 280.976 90.4616 280.64C90.919 280.305 91.4678 280.137 92.1081 280.137H99.1059ZM124.664 279.405C128.079 279.405 131.159 279.969 133.903 281.098C136.678 282.195 139.026 283.796 140.947 285.9C142.898 287.973 144.392 290.489 145.429 293.446C146.465 296.374 146.984 299.667 146.984 303.326C146.984 306.985 146.465 310.293 145.429 313.251C144.392 316.208 142.898 318.724 140.947 320.797C139.026 322.871 136.678 324.471 133.903 325.6C131.159 326.697 128.079 327.246 124.664 327.246C121.219 327.246 118.109 326.697 115.334 325.6C112.59 324.471 110.242 322.871 108.29 320.797C106.339 318.724 104.83 316.208 103.762 313.251C102.726 310.293 102.207 306.985 102.207 303.326C102.207 299.667 102.726 296.374 103.762 293.446C104.83 290.489 106.339 287.973 108.29 285.9C110.242 283.796 112.59 282.195 115.334 281.098C118.109 279.969 121.219 279.405 124.664 279.405ZM124.664 320.294C129.055 320.294 132.333 318.815 134.498 315.858C136.662 312.9 137.745 308.738 137.745 303.371C137.745 298.005 136.662 293.843 134.498 290.885C132.333 287.897 129.055 286.403 124.664 286.403C120.212 286.403 116.889 287.897 114.694 290.885C112.529 293.843 111.446 298.005 111.446 303.371C111.446 308.738 112.529 312.9 114.694 315.858C116.889 318.815 120.212 320.294 124.664 320.294ZM195.587 280.137V326.606H190.236C189.016 326.606 188.223 326.011 187.858 324.822L187.217 320.157C186.211 321.224 185.159 322.2 184.061 323.084C182.964 323.968 181.79 324.731 180.54 325.371C179.289 325.981 177.963 326.453 176.561 326.789C175.158 327.155 173.649 327.338 172.033 327.338C169.471 327.338 167.215 326.911 165.264 326.057C163.343 325.203 161.727 324.014 160.415 322.489C159.104 320.934 158.113 319.074 157.443 316.909C156.772 314.745 156.436 312.351 156.436 309.729V280.137H165.401V309.729C165.401 313.052 166.163 315.644 167.688 317.504C169.212 319.334 171.545 320.248 174.685 320.248C176.972 320.248 179.107 319.715 181.088 318.647C183.07 317.55 184.93 316.056 186.668 314.165V280.137H195.587ZM240.601 288.827C240.326 289.162 240.052 289.437 239.777 289.65C239.533 289.833 239.168 289.925 238.68 289.925C238.192 289.925 237.674 289.742 237.125 289.376C236.606 288.98 235.936 288.568 235.112 288.141C234.319 287.684 233.344 287.272 232.185 286.906C231.057 286.51 229.654 286.312 227.977 286.312C225.782 286.312 223.846 286.708 222.169 287.501C220.492 288.293 219.089 289.422 217.961 290.885C216.863 292.349 216.025 294.133 215.445 296.236C214.866 298.34 214.576 300.703 214.576 303.326C214.576 306.039 214.881 308.463 215.491 310.598C216.101 312.702 216.97 314.485 218.098 315.949C219.226 317.382 220.598 318.48 222.214 319.242C223.83 319.974 225.629 320.34 227.611 320.34C229.532 320.34 231.118 320.111 232.368 319.654C233.618 319.166 234.655 318.647 235.478 318.099C236.301 317.55 236.987 317.047 237.536 316.589C238.085 316.101 238.649 315.858 239.229 315.858C239.96 315.858 240.524 316.132 240.921 316.681L243.482 319.974C242.415 321.285 241.21 322.398 239.869 323.313C238.558 324.227 237.155 324.974 235.661 325.554C234.167 326.133 232.597 326.56 230.95 326.834C229.334 327.109 227.688 327.246 226.011 327.246C223.114 327.246 220.4 326.712 217.869 325.645C215.369 324.578 213.189 323.023 211.329 320.98C209.5 318.937 208.051 316.437 206.984 313.479C205.917 310.491 205.383 307.107 205.383 303.326C205.383 299.88 205.856 296.694 206.801 293.767C207.777 290.839 209.195 288.324 211.055 286.22C212.945 284.086 215.262 282.424 218.007 281.235C220.751 280.015 223.891 279.405 227.428 279.405C230.752 279.405 233.679 279.939 236.21 281.006C238.741 282.073 240.997 283.583 242.979 285.534L240.601 288.827ZM260.726 286.037C262.678 284.055 264.827 282.454 267.175 281.235C269.554 280.015 272.283 279.405 275.362 279.405C277.923 279.405 280.164 279.832 282.085 280.686C284.037 281.54 285.668 282.744 286.979 284.299C288.29 285.824 289.281 287.668 289.952 289.833C290.623 291.998 290.958 294.392 290.958 297.014V326.606H281.994V297.014C281.994 293.69 281.232 291.114 279.707 289.284C278.183 287.424 275.85 286.494 272.709 286.494C270.423 286.494 268.273 287.043 266.26 288.141C264.279 289.208 262.434 290.672 260.726 292.532V326.606H251.808V259.098H260.726V286.037ZM333.775 298.203C333.775 296.435 333.515 294.803 332.997 293.309C332.509 291.815 331.777 290.519 330.802 289.422C329.826 288.324 328.637 287.47 327.234 286.86C325.832 286.251 324.216 285.946 322.386 285.946C318.636 285.946 315.678 287.028 313.513 289.193C311.379 291.358 310.022 294.361 309.443 298.203H333.775ZM341.138 319.974C340.04 321.255 338.775 322.367 337.342 323.313C335.909 324.227 334.384 324.974 332.768 325.554C331.152 326.133 329.475 326.56 327.737 326.834C326.03 327.109 324.337 327.246 322.66 327.246C319.459 327.246 316.486 326.712 313.742 325.645C311.028 324.548 308.665 322.962 306.653 320.889C304.671 318.785 303.116 316.193 301.987 313.113C300.89 310.003 300.341 306.436 300.341 302.411C300.341 299.179 300.844 296.175 301.85 293.401C302.856 290.596 304.289 288.156 306.149 286.083C308.04 284.009 310.342 282.378 313.056 281.189C315.769 280 318.819 279.405 322.203 279.405C325.039 279.405 327.646 279.878 330.024 280.823C332.433 281.738 334.506 283.079 336.244 284.848C337.982 286.616 339.339 288.797 340.315 291.388C341.321 293.98 341.824 296.938 341.824 300.261C341.824 301.633 341.672 302.563 341.367 303.051C341.062 303.509 340.498 303.737 339.675 303.737H309.214C309.305 306.512 309.702 308.936 310.403 311.009C311.104 313.052 312.065 314.76 313.284 316.132C314.535 317.504 316.013 318.526 317.721 319.196C319.428 319.867 321.334 320.203 323.438 320.203C325.42 320.203 327.127 319.974 328.561 319.517C330.024 319.059 331.274 318.571 332.311 318.053C333.378 317.504 334.262 317.001 334.964 316.544C335.695 316.086 336.336 315.858 336.885 315.858C337.616 315.858 338.18 316.132 338.577 316.681L341.138 319.974ZM359.826 289.056C361.32 286.007 363.119 283.613 365.223 281.875C367.327 280.137 369.858 279.268 372.815 279.268C373.821 279.268 374.767 279.39 375.651 279.634C376.566 279.847 377.358 280.183 378.029 280.64L377.435 287.363C377.221 288.187 376.718 288.598 375.925 288.598C375.498 288.598 374.858 288.522 374.004 288.37C373.151 288.187 372.236 288.095 371.26 288.095C369.827 288.095 368.562 288.309 367.464 288.736C366.366 289.132 365.375 289.742 364.491 290.565C363.637 291.358 362.875 292.349 362.204 293.538C361.533 294.697 360.908 296.023 360.329 297.517V326.606H351.41V280.137H356.533C357.509 280.137 358.164 280.32 358.5 280.686C358.865 281.021 359.125 281.631 359.277 282.515L359.826 289.056Z" fill="#D9D9D9"/>
<path d="M403.125 313.501L409.313 255.751H450.563L456.75 311.438L429.938 294.938L403.125 313.501Z" fill="#00519D"/>
<path d="M403.125 313.501L409.313 255.751H450.563L456.75 311.438L429.938 294.938L403.125 313.501Z" stroke="black"/>
<circle cx="427.875" cy="226.875" r="37.125" fill="#00519D"/>
<path d="M415.5 268.126C436.004 268.126 452.625 251.504 452.625 231.001C452.625 210.497 436.004 193.876 415.5 193.876C394.997 193.876 378.375 210.497 378.375 231.001C378.375 251.504 394.997 268.126 415.5 268.126Z" stroke="#D9D9D9" stroke-width="8.25" stroke-linecap="round" stroke-linejoin="round"/>
<path d="M415.5 268.126C436.004 268.126 452.625 251.504 452.625 231.001C452.625 210.497 436.004 193.876 415.5 193.876C394.997 193.876 378.375 210.497 378.375 231.001C378.375 251.504 394.997 268.126 415.5 268.126Z" stroke="#D9D9D9" stroke-width="8.25" stroke-linecap="round" stroke-linejoin="round"/>
<path d="M397.239 264.06L390.75 317.626L417.563 299.986L444.375 317.626L437.887 264.001" stroke="#D9D9D9" stroke-width="8.25" stroke-linecap="round" stroke-linejoin="round"/>
</svg>
