<svg width="200" height="80" viewBox="0 0 200 80" fill="none" xmlns="http://www.w3.org/2000/svg"><path d="M97.8354 12H102.269L105.028 28.8394H100.618L100.217 25.8204H94.2974L92.5983 28.8394H87.9986L97.8354 12ZM95.9965 22.5667H99.8402L99.2028 16.5049H99.1554L95.9941 22.5667H95.9965Z" fill="#011E41"/><path d="M105.947 25.8915L113.353 19.5477H107.622L108.236 16.5997H118.874L118.26 19.5477L110.831 25.8915H117.483L116.846 28.8395H105.288L105.949 25.8915H105.947Z" fill="#011E41"/><path d="M129.154 28.8395H125.31L125.663 27.164H125.616C124.72 28.5314 123.258 29.1926 121.606 29.1926C118.282 29.1926 117.95 26.6451 117.95 25.9839C117.95 25.1829 118.068 24.5455 118.187 24.0265L119.767 16.5973H123.777L122.386 23.389C122.268 23.9554 122.22 24.3796 122.22 24.8512C122.22 25.5597 122.621 26.1237 123.54 26.1237C125.239 26.1237 125.993 24.9436 126.322 23.2232L127.737 16.595H131.747L129.152 28.8347L129.154 28.8395Z" fill="#011E41"/><path d="M133.517 12H137.526L134.012 28.8394H130.002L133.517 12Z" fill="#011E41"/><path d="M147.311 21.0572C147.335 20.4672 147.145 19.9956 146.816 19.6662C146.51 19.3605 146.084 19.2183 145.52 19.1946C143.162 19.0998 142.429 21.5762 142.429 23.4388C142.429 25.3014 143.114 26.2446 144.458 26.2446C145.73 26.2446 146.486 25.4199 146.792 24.1687H150.683C149.953 27.6593 147.522 29.1926 144.292 29.1926C140.896 29.1926 138.42 27.4698 138.42 23.863C138.42 19.524 141.273 16.2443 145.707 16.2443C148.797 16.2443 151.178 17.7775 151.202 21.0549H147.311V21.0572Z" fill="#3CB4E5"/><path d="M152.641 20.3724C153.278 17.1874 155.636 16.2443 158.631 16.2443C162.027 16.2443 164.222 17.0689 164.222 19.4529C164.222 21.0809 163.302 24.4768 163.018 25.6095C162.804 26.4579 162.641 27.2375 162.641 27.8963C162.641 28.3205 162.736 28.6286 162.807 28.8395H158.868C158.773 28.2494 158.773 28.2968 158.773 27.6593H158.726C157.973 28.7447 156.769 29.1926 155.022 29.1926C152.735 29.1926 151.036 28.2731 151.036 25.7493C151.036 22.472 153.961 21.8345 157.098 21.5975C158.465 21.5264 160.354 21.6212 160.354 20.0169C160.354 19.3083 159.859 18.8368 158.655 18.8368C157.382 18.8368 156.603 19.2136 156.437 20.37H152.641V20.3724ZM156.674 26.7162C159.103 26.7162 159.574 24.3346 159.717 23.2255H159.693C158.679 24.0739 155.046 23.0834 155.046 25.4436C155.046 26.4105 155.871 26.7162 156.674 26.7162V26.7162Z" fill="#3CB4E5"/><path d="M166.034 16.5997H169.926L169.478 18.6045H169.525C170.35 17.166 171.743 16.2466 173.369 16.2466C173.911 16.2466 174.312 16.2703 174.712 16.4599L173.933 19.9979C173.39 19.8557 172.871 19.7609 172.118 19.7609C169.923 19.7609 169.075 21.152 168.674 23.2279L167.494 28.8418H163.485L166.032 16.602L166.034 16.5997Z" fill="#3CB4E5"/><path d="M176.883 29.1925C176.883 29.6641 177.049 30.0172 177.331 30.2779C177.613 30.5148 178.016 30.6547 178.487 30.6547C180.987 30.6547 181.035 28.7209 181.483 26.7872H181.435C180.822 27.7778 179.383 28.2494 178.229 28.2494C175.447 28.2494 173.629 26.2919 173.629 23.5336C173.629 20.0192 175.682 16.2466 179.549 16.2466C181.153 16.2466 182.687 16.7182 183.3 18.3225H183.348L183.677 16.5997H187.521L185.469 26.4815C184.383 31.6476 182.732 33.1334 178.253 33.1334C175.634 33.1334 172.805 32.3561 172.876 29.1949H176.885L176.883 29.1925ZM182.521 21.8108C182.521 20.396 181.931 19.3107 180.611 19.3107C178.558 19.3107 177.639 21.3155 177.639 23.1544C177.639 24.4506 178.158 25.536 179.596 25.536C181.578 25.536 182.521 23.6734 182.521 21.8084V21.8108Z" fill="#3CB4E5"/><path d="M194.223 16.2443C197.571 16.2443 200 18.1306 200 21.6449C200 26.0076 197.242 29.1926 192.808 29.1926C189.412 29.1926 186.936 27.4698 186.936 23.863C186.936 19.524 189.789 16.2443 194.223 16.2443V16.2443ZM192.903 26.2446C195.189 26.2446 195.993 23.6971 195.993 21.8108C195.993 20.2776 195.474 19.1922 193.964 19.1922C191.794 19.1922 190.945 22.0691 190.945 23.7208C190.945 25.1119 191.488 26.2446 192.903 26.2446V26.2446Z" fill="#3CB4E5"/><path d="M24.3022 39.9512L9.77561 58.4731C9.71873 58.5442 9.63342 58.5869 9.541 58.5869H0.298987C0.0501631 58.5869 -0.0896521 58.3001 0.0643816 58.1034L14.3018 39.9512C14.3729 39.8588 14.3848 39.7355 14.3326 39.6313L7.3869 26.0218C7.285 25.8227 7.42956 25.5881 7.65231 25.5881H16.982C17.0934 25.5881 17.1977 25.6521 17.2474 25.7516L24.333 39.6313C24.3851 39.7355 24.3733 39.8588 24.3022 39.9512V39.9512Z" fill="#3CB4E5"/><path d="M38.5088 39.9512L23.9823 58.4732C23.9254 58.5443 23.8401 58.5869 23.7477 58.5869H14.5057C14.2568 58.5869 14.117 58.3002 14.271 58.1035L28.5085 39.9489C28.5796 39.8564 28.5914 39.7332 28.5393 39.6289L21.5912 26.0195C21.4893 25.8204 21.6339 25.5858 21.8566 25.5858H31.1863C31.2977 25.5858 31.402 25.6498 31.4517 25.7493L38.5373 39.6289C38.5894 39.7332 38.5776 39.8564 38.5065 39.9489L38.5088 39.9512Z" fill="#011E41"/><path d="M44.3337 25.5881H69.5217L68.2729 31.6855H50.3386L48.8623 38.7616H65.4552L64.2538 44.3992H47.6608L45.9522 52.4871H64.1613L62.8675 58.5892H37.3998L44.336 25.5881H44.3337Z" fill="#011E41"/><path d="M81.4036 46.1528L87.4583 58.5868H80.5268L77.0599 50.7288L70.6781 58.5868H63.2395L74.3323 45.7855L68.9245 34.6903H75.9532L78.586 41.5792L83.9938 34.6903H91.3447L81.4036 46.1551V46.1528Z" fill="#011E41"/><path d="M93.1955 34.6903H99.5275L98.8805 37.6478L98.9729 37.7402C100.454 35.1548 103.227 34.041 106.137 34.041C111.867 34.041 115.196 37.7402 115.196 43.475C115.196 51.3283 111.037 59.2338 102.208 59.2338C99.4327 59.2338 96.5203 58.0323 95.5036 55.3948H95.3638L92.8708 66.9995H86.3066L93.1908 34.688L93.1955 34.6903ZM96.7549 49.1126C96.7549 52.1648 98.2786 54.2881 101.468 54.2881C106.416 54.2881 108.632 48.5107 108.632 44.3044C108.632 41.4394 107.061 38.989 103.964 38.989C99.063 38.989 96.7525 44.9987 96.7525 49.1126H96.7549Z" fill="#011E41"/><path d="M118.395 34.6903H124.633L123.663 38.989L123.753 39.0815C125.234 35.8017 128.467 34.041 131.984 34.041C132.673 34.041 133.32 34.0884 134.014 34.1808L132.673 40.5578C131.751 40.3754 130.825 40.1431 129.901 40.1431C124.865 40.1431 123.061 43.9347 122.182 48.0012L119.964 58.5845H113.4L118.393 34.688L118.395 34.6903Z" fill="#011E41"/><path d="M137.97 48.2358C137.922 48.833 137.922 49.2524 137.922 49.6198C137.922 52.3924 139.631 54.2882 143.19 54.2882C145.823 54.2882 147.117 52.5322 148.086 51.0084H154.65C152.572 56.3712 149.152 59.2362 142.264 59.2362C135.887 59.2362 131.633 55.5844 131.633 48.7927C131.633 41.1621 136.673 34.0458 144.806 34.0458C151.463 34.0458 155.944 37.5625 155.944 44.494C155.944 45.7879 155.804 47.0794 155.577 48.2382H137.967L137.97 48.2358ZM149.614 44.0769C149.614 41.6266 149.013 38.9891 145.176 38.9891C141.339 38.9891 139.633 41.392 138.659 44.0769H149.614Z" fill="#011E41"/><path d="M171.888 41.6716C171.84 39.636 170.686 38.4345 168.189 38.4345C165.878 38.4345 164.167 39.0815 164.167 40.7924C164.167 41.8541 164.949 42.501 167.167 43.1954L170.452 44.257C173.964 45.4134 176.736 47.0746 176.736 51.1008C176.736 57.0181 170.866 59.2338 165.369 59.2338C160.695 59.2338 155.2 57.3854 155.2 51.7904V50.8212H161.297V51.608C161.297 53.7786 163.748 54.8403 166.011 54.8403C167.999 54.8403 170.17 54.1507 170.17 51.9753C170.17 50.3117 169.248 49.8046 167.812 49.3425L162.776 47.7216C159.492 46.6599 157.601 45.3637 157.601 41.6242C157.601 35.9842 163.563 34.041 168.184 34.041C173.407 34.041 178.073 35.5221 177.98 41.6716H171.883H171.888Z" fill="#011E41"/><path d="M193.9 41.6716C193.853 39.636 192.699 38.4345 190.201 38.4345C187.891 38.4345 186.18 39.0815 186.18 40.7924C186.18 41.8541 186.962 42.501 189.18 43.1954L192.464 44.257C195.976 45.4134 198.749 47.0746 198.749 51.1008C198.749 57.0181 192.879 59.2338 187.381 59.2338C182.708 59.2338 177.213 57.3854 177.213 51.7904V50.8212H183.31V51.608C183.31 53.7786 185.76 54.8403 188.023 54.8403C190.012 54.8403 192.182 54.1507 192.182 51.9753C192.182 50.3117 191.26 49.8046 189.824 49.3425L184.789 47.7216C181.504 46.6599 179.613 45.3637 179.613 41.6242C179.613 35.9842 185.575 34.041 190.196 34.041C195.419 34.041 200.085 35.5221 199.993 41.6716H193.896H193.9Z" fill="#011E41"/></svg>