<svg width="101" height="41" viewBox="0 0 101 41" fill="none" xmlns="http://www.w3.org/2000/svg"><path d="M93.4614 19.1664H90.528C89.7411 19.1664 89.4162 18.9267 89.169 18.1791L87.2511 12.5831C86.6779 14.8347 85.1994 20.642 85.064 21.211H82.0408C82.26 20.3472 84.9073 9.95285 84.9073 9.95285H88.2314C89.1334 9.95285 89.5466 10.2521 89.8206 11.1348C90.3384 12.7839 91.5194 16.5005 91.5194 16.5005C92.1769 14.5538 93.7201 9.95285 93.7201 9.95285H96.9532C97.859 9.96175 98.2684 10.2966 98.4876 11.1765C99.2981 14.4125 101 21.1999 101 21.1999L98.0306 21.2093C98.0306 21.2093 96.5411 15.3314 95.843 12.5815L93.4614 19.1664Z" fill="#1C008A"/><path d="M57.8415 21.2054V12.5759L52.4443 12.216V9.94172L66.3008 9.94561V12.216L60.9152 12.5759V21.2054H57.8415Z" fill="#1C008A"/><path d="M26.354 9.97009H29.4775V18.6302H36.9751C36.5537 19.489 35.6496 21.2049 35.6496 21.2049H26.3546L26.354 9.97009Z" fill="#1C008A"/><path d="M19.0011 15.4993C19.2121 15.5911 19.2176 15.7919 19.2203 15.9738C19.2313 16.8351 19.2355 17.6967 19.2329 18.5585C19.2329 19.1063 18.9819 19.4484 18.4531 19.6425C13.9052 21.3015 9.36161 22.9714 4.82243 24.6523C4.54021 24.7563 4.49857 24.6862 4.50295 24.4131C4.5161 23.5143 4.52925 22.6143 4.49692 21.716C4.48432 21.3573 4.61474 21.231 4.92655 21.1176C8.14873 19.9462 11.3673 18.7648 14.5821 17.5734C14.7093 17.5267 14.8342 17.475 14.9602 17.426C15.1246 17.2147 15.3773 17.1785 15.6019 17.0923C16.4639 16.7686 17.3429 16.4938 18.2021 16.1623C18.5397 16.0327 18.8367 15.8492 19.0011 15.4993Z" fill="#1C008A"/><path d="M19.0771 9.91836C19.1073 10.034 19.0596 10.1164 18.9703 10.182C18.6331 10.4092 18.265 10.585 17.8776 10.7037C17.4797 10.9629 17.0161 11.0564 16.5821 11.2243C16.067 11.4246 15.541 11.5942 15.0193 11.7766L6.10895 8.54008C5.77249 8.41771 5.44643 8.2731 5.16805 8.03949C4.97997 7.88609 4.82892 7.69108 4.72644 7.46937C4.62396 7.24765 4.57277 7.00509 4.57677 6.76022C4.57184 6.18566 4.5691 5.6111 4.57349 5.03598C4.57677 4.59102 4.65294 4.5354 5.08695 4.69169C6.58004 5.22565 8.07222 5.76331 9.56348 6.30469C12.5117 7.37149 15.4591 8.44052 18.4058 9.51177C18.6508 9.60188 18.9478 9.62301 19.0771 9.91836Z" fill="#ED1651"/><path d="M4.50562 28.6241C4.50562 28.1497 4.51439 27.6752 4.50124 27.2013C4.49576 27.0072 4.56097 26.9232 4.74235 26.8559C6.99678 26.0491 9.24957 25.2374 11.5007 24.4209C11.8547 24.2935 11.9797 24.3602 12.0071 24.749C12.0619 25.5205 12.0772 26.2958 11.9851 27.0656C11.9265 27.5607 11.5791 27.7998 11.1456 27.9556C9.70057 28.4728 8.25935 28.999 6.81649 29.5218C6.14685 29.7649 5.47556 30.003 4.80976 30.256C4.58672 30.3406 4.48699 30.3372 4.49959 30.0469C4.52097 29.573 4.50562 29.0986 4.50562 28.6241Z" fill="#1C008A"/><path d="M4.56921 34.2679C4.56921 33.8068 4.57579 33.3452 4.56592 32.8835C4.56209 32.7011 4.60099 32.5893 4.79005 32.5198C5.61916 32.2155 6.44114 31.8907 7.26916 31.5826C7.60891 31.4563 7.76235 31.5531 7.77714 31.9258C7.80509 32.5932 7.89167 33.2607 7.8577 33.9331C7.82865 34.5043 7.59412 34.8998 7.04887 35.0967C6.31017 35.3637 5.57368 35.6373 4.84211 35.9232C4.61853 36.0105 4.56154 35.9555 4.56812 35.7274C4.57579 35.2413 4.56921 34.7546 4.56921 34.2679Z" fill="#1C008A"/><path d="M2.9164 12.9636C2.34156 12.7472 1.76069 12.5459 1.19462 12.3073C0.398937 11.9735 -0.0158917 11.3667 0.00054799 10.4718C0.0104118 9.93727 0.0054799 9.40053 0 8.86379C0 8.57846 0.109598 8.46777 0.386881 8.57011C4.19979 9.98362 8.01252 11.3975 11.8251 12.8117L19.0005 15.4993C19.0005 15.4993 18.9643 15.8331 18.8141 15.941C18.5938 16.0977 18.3527 16.2219 18.0979 16.3097C17.0523 16.6846 16.0064 17.0567 14.9601 17.426L2.9164 12.9636Z" fill="#ED1651"/><path d="M18.5445 13.9414C18.9599 13.7912 19.1731 13.5009 19.229 13.0637C19.3429 12.1704 19.2975 11.2749 19.2717 10.3806C19.2673 10.2243 19.3199 9.99122 19.0772 9.91836C18.9835 9.98511 18.9413 10.0991 18.8525 10.1703C18.5648 10.4345 18.2141 10.5597 17.8442 10.6453L0.589093 17.0728C0.369897 17.1841 0.200568 17.1696 0.0411028 16.9894C0.0164433 17.3559 0.192348 17.5667 0.523882 17.6847C1.63247 18.0868 2.7405 18.4901 3.84196 18.9128C4.22001 19.0649 4.641 19.0649 5.01904 18.9128L18.5445 13.9414Z" fill="#1C008A"/><path d="M47.6005 10.5708C47.3813 10.1336 47.361 9.9445 46.8881 9.94561H43.5613C41.8115 13.4987 39.7478 17.6557 37.991 21.2054H41.3304L42.3513 19.1597H48.5579C48.8055 19.6887 49.2949 20.6809 49.553 21.2049H52.9116C51.1597 17.6941 49.3535 14.0804 47.6005 10.5708ZM43.4424 16.8264L45.5203 12.3362L47.5309 16.8264H43.4424Z" fill="#1C008A"/><path d="M75.3485 10.5708C75.1293 10.1336 75.109 9.9445 74.6361 9.94561H71.3076C69.5541 13.4987 67.4942 17.6557 65.7373 21.2054H69.0768L70.0977 19.1597H76.3047C76.5519 19.6887 77.0418 20.6809 77.2993 21.2049H80.6585C78.9071 17.6941 77.1021 14.0804 75.3485 10.5708ZM71.1904 16.8264L73.2661 12.3362L75.2773 16.8264H71.1904Z" fill="#1C008A"/><path d="M58.7046 36.1168C58.7046 36.1168 58.5117 35.7742 58.4306 35.6379C57.9149 34.7936 57.402 33.9481 56.8781 33.1088C56.7422 32.8908 56.6655 32.7751 56.9778 32.5988C58.2733 31.8668 58.881 30.4513 58.5714 29.0124C58.2903 27.7036 56.9751 26.7263 55.4714 26.5717C55.2961 26.5717 50.3154 26.5762 50.2441 26.5773V36.1168H51.4015C51.3971 36.0612 51.4015 33.7468 51.4015 33.0643C51.4015 32.7601 51.4673 32.7011 51.7654 32.8029C52.8613 33.1756 53.9902 33.3252 55.1426 33.1511C55.3876 33.1144 55.4895 33.2267 55.6018 33.4092C56.1038 34.2229 57.3006 36.1168 57.3006 36.1168H58.7046ZM51.6684 31.5253C51.4722 31.4563 51.3999 31.3328 51.402 31.1176C51.4119 30.1081 51.4152 29.098 51.402 28.0879C51.3982 27.8071 51.5188 27.7637 51.7539 27.7687C52.3249 27.7815 52.8959 27.7731 53.5819 27.7731C54.2313 27.8015 54.9985 27.7175 55.7608 27.8582C56.7104 28.0351 57.339 28.6069 57.4414 29.41C57.5647 30.3756 57.145 31.1582 56.2074 31.5398C54.7004 32.1527 53.1797 32.0559 51.6684 31.5253Z" fill="#1C008A"/><path d="M47.502 36.1168C46.1244 33.3063 44.1494 29.3934 42.7937 26.5717H41.6473C41.5377 26.7747 38.3353 33.3335 36.9768 36.1168H38.2235C38.469 35.525 39.1814 34.1206 39.4482 33.5365H44.9775C45.2076 34.0471 46.0389 35.5945 46.2247 36.1168H47.502ZM39.9803 32.4631C40.6708 31.0497 42.0939 28.0885 42.2123 27.8438C42.3219 28.074 43.7675 31.0764 44.447 32.4631H39.9803Z" fill="#1C008A"/><path d="M0.589007 17.0728C0.369811 17.1841 0.200482 17.1696 0.041017 16.9894C0.041017 16.1913 0.041017 15.382 0.0163574 14.5655C0.0223853 14.2317 0.249801 14.1511 0.64819 14.2996C1.78472 14.7257 4.23259 15.6267 4.30821 15.689L0.589007 17.0728Z" fill="#ED1651"/><path d="M78.1785 36.1251C75.2401 36.0934 73.2876 34.1478 73.3013 31.265C73.315 28.4372 75.3338 26.5328 78.3067 26.5445C81.2571 26.5556 83.2759 28.5001 83.2731 31.3278C83.2704 34.1962 81.1875 36.1574 78.1785 36.1251ZM74.417 31.2494C74.3918 33.5677 75.935 35.1011 78.2985 35.1067C80.5693 35.1123 82.1404 33.5799 82.1563 31.3445C82.1717 29.0913 80.6548 27.6002 78.3281 27.5818C75.9766 27.5629 74.4412 29.0029 74.417 31.2494Z" fill="#1C008A"/><path d="M70.4479 31.5703C70.4418 32.0487 70.4479 33.1071 70.4479 33.5849C70.4522 35.5528 70.4517 35.5511 68.5705 35.9466C67.2887 36.2163 66.0152 36.2052 64.763 35.7997C62.8412 35.1768 61.6603 33.6428 61.5644 31.6777C61.4619 29.5641 62.525 27.8399 64.4381 27.0428C66.1445 26.332 67.8729 26.4516 69.5985 26.9566C69.896 27.0439 70.3459 27.0829 70.2013 27.6052C70.0467 28.1647 69.6533 28.0073 69.2697 27.9016C68.097 27.5773 66.9089 27.4655 65.7132 27.7453C63.8462 28.1819 62.6681 29.6364 62.6911 31.4374C62.7152 33.2729 63.8967 34.6022 65.8508 34.9565C66.3128 35.0454 66.7831 35.0827 67.2531 35.0678C69.3091 34.9766 69.3782 34.892 69.3974 32.8085C69.3974 32.591 69.4001 31.7862 69.4001 31.5687L70.4479 31.5703Z" fill="#1C008A"/><path d="M31.6738 36.1168C28.3546 36.129 26.2635 34.1739 26.3583 31.1448C26.4356 28.6147 28.3009 26.8064 31.0683 26.5717C32.1095 26.4844 33.1183 26.6424 34.1085 26.9505C34.4373 27.0534 34.8023 27.1657 34.6565 27.6519C34.519 28.1141 34.1864 28.0796 33.8307 27.9544C32.897 27.6224 31.8989 27.5202 30.9187 27.6563C28.8292 27.9422 27.4954 29.395 27.4855 31.374C27.4762 33.3252 28.7054 34.6556 30.8195 35.0055C31.8607 35.1768 32.8673 35.0427 33.8598 34.7324C34.2433 34.6117 34.6439 34.4593 34.7913 35.0105C34.9185 35.4844 34.5119 35.5984 34.1973 35.7007C33.3803 35.9688 32.5418 36.1418 31.6738 36.1168Z" fill="#1C008A"/></svg>