<svg width="21" height="18" viewBox="0 0 21 18" fill="none" xmlns="http://www.w3.org/2000/svg">
<path d="M11.4219 0.000144699C11.2636 0.00628329 11.1126 0.0678695 10.9951 0.174128L5.29507 4.91367C5.20201 5.00609 5.08922 5.07623 4.96517 5.11884C4.84112 5.16144 4.70903 5.17539 4.57882 5.15965H0.906029C0.786828 5.15885 0.668656 5.18174 0.558373 5.22698C0.448091 5.27223 0.347897 5.33893 0.263607 5.42321C0.179317 5.50749 0.112611 5.60767 0.0673618 5.71794C0.022113 5.82821 -0.000777224 5.94637 2.01367e-05 6.06556V11.9345C-0.000577905 12.0536 0.0224595 12.1716 0.0677976 12.2817C0.113136 12.3918 0.179873 12.4918 0.264143 12.5759C0.348413 12.66 0.44854 12.7266 0.558723 12.7717C0.668906 12.8169 0.786955 12.8397 0.906029 12.8389H4.57507C4.70528 12.8232 4.83737 12.8371 4.96142 12.8797C5.08547 12.9223 5.19826 12.9925 5.29132 13.0849L10.9914 17.8244C11.3821 18.1492 11.8021 17.9924 11.8021 17.6077V0.391607C11.8051 0.340388 11.7973 0.289119 11.7794 0.241049C11.7615 0.192978 11.7338 0.149154 11.698 0.112353C11.6623 0.0755512 11.6193 0.0465749 11.5717 0.0272596C11.5242 0.00794427 11.4732 -0.00128899 11.4219 0.000144699ZM18.7502 1.72498L17.4069 3.0696C18.5411 4.84357 19.1438 6.90506 19.1438 9.01053C19.1438 11.116 18.5411 13.1775 17.4069 14.9515L18.7457 16.2833C20.2134 14.1397 20.9992 11.6027 21 9.00485C21.0008 6.40699 20.2166 3.86951 18.7502 1.72498ZM15.5004 4.96692L14.1789 6.29954C14.7656 7.0826 15.0828 8.0347 15.0828 9.01316C15.0828 9.99161 14.7656 10.9437 14.1789 11.7268L15.4959 13.0436C16.4225 11.9022 16.9288 10.4771 16.9302 9.00698C16.9316 7.53685 16.4279 6.11086 15.5034 4.96767L15.5004 4.96692Z" fill="#00519D"/>
</svg>
