<svg width="33" height="30" viewBox="0 0 33 30" fill="none" xmlns="http://www.w3.org/2000/svg">
<path d="M14.5533 7.48151L6.87817 14.889C5.98402 15.7519 5.53694 16.1834 5.32463 16.67C5.18502 16.9912 5.11004 17.3367 5.10399 17.6869C5.09794 18.0371 5.16092 18.385 5.28935 18.7109C5.48334 19.2037 5.91482 19.6508 6.77779 20.5449C7.54113 19.8082 8.56586 19.4049 9.62656 19.4237C10.6873 19.4425 11.697 19.882 12.4338 20.6453C13.1705 21.4086 13.5738 22.4334 13.555 23.4941C13.5361 24.5548 13.0967 25.5646 12.3334 26.3013C13.1963 27.1954 13.6278 27.6425 14.1135 27.8538C14.4345 27.9938 14.78 28.0691 15.1302 28.0754C15.4804 28.0818 15.8284 28.0191 16.1543 27.891C16.6481 27.6961 17.0952 27.2646 17.9893 26.4016L25.6645 18.9942M14.5533 7.48151L18.3909 3.77779C19.285 2.91483 19.7321 2.48334 20.2249 2.28935C20.551 2.16095 20.8991 2.09806 21.2494 2.10428C21.5998 2.1105 21.9455 2.1857 22.2667 2.32559C22.7524 2.53695 23.1839 2.98402 24.0468 3.87817C23.2835 4.61489 22.8441 5.62467 22.8252 6.68537C22.8064 7.74607 23.2097 8.7708 23.9464 9.53414C24.6832 10.2975 25.6929 10.7369 26.7536 10.7557C27.8143 10.7745 28.8391 10.3712 29.6024 9.63452C30.4654 10.5287 30.8969 10.9757 31.0908 11.4686C31.2193 11.7946 31.2821 12.1427 31.2759 12.4931C31.2697 12.8434 31.1945 13.1891 31.0546 13.5104C30.8433 13.996 30.3962 14.4275 29.502 15.2905L25.6645 18.9942M14.5533 7.48151L25.6645 18.9942" stroke="#D9D9D9" stroke-width="2.66667" stroke-linecap="round" stroke-linejoin="round"/>
<path d="M11.5533 7.48151L3.87817 14.889C2.98402 15.7519 2.53694 16.1834 2.32463 16.67C2.18502 16.9912 2.11004 17.3367 2.10399 17.6869C2.09794 18.0371 2.16092 18.385 2.28935 18.7109C2.48334 19.2037 2.91482 19.6508 3.77779 20.5449C4.54113 19.8082 5.56586 19.4049 6.62656 19.4237C7.68726 19.4425 8.69704 19.882 9.43375 20.6453C10.1705 21.4086 10.5738 22.4334 10.555 23.4941C10.5361 24.5548 10.0967 25.5646 9.33337 26.3013C10.1963 27.1954 10.6278 27.6425 11.1135 27.8538C11.4345 27.9938 11.78 28.0691 12.1302 28.0754C12.4804 28.0818 12.8284 28.0191 13.1543 27.891C13.6481 27.6961 14.0952 27.2646 14.9893 26.4016L22.6645 18.9942M11.5533 7.48151L15.3909 3.77779C16.285 2.91483 16.7321 2.48334 17.2249 2.28935C17.551 2.16095 17.8991 2.09806 18.2494 2.10428C18.5998 2.1105 18.9455 2.1857 19.2667 2.32559C19.7524 2.53695 20.1839 2.98402 21.0468 3.87817C20.2835 4.61489 19.8441 5.62467 19.8252 6.68537C19.8064 7.74607 20.2097 8.7708 20.9464 9.53414C21.6832 10.2975 22.6929 10.7369 23.7536 10.7557C24.8143 10.7745 25.8391 10.3712 26.6024 9.63452C27.4654 10.5287 27.8969 10.9757 28.0908 11.4686C28.2193 11.7946 28.2821 12.1427 28.2759 12.4931C28.2697 12.8434 28.1945 13.1891 28.0546 13.5104C27.8433 13.996 27.3962 14.4275 26.502 15.2905L22.6645 18.9942M11.5533 7.48151L22.6645 18.9942" stroke="#00519D" stroke-width="2.66667" stroke-linecap="round" stroke-linejoin="round"/>
</svg>
